<?xml version="1.0" encoding="UTF-8"?> <!-- Generator: Adobe Illustrator 27.2.0, SVG Export Plug-In . SVG Version: 6.00 Build 0) --> <svg xmlns="http://www.w3.org/2000/svg" xmlns:xlink="http://www.w3.org/1999/xlink" version="1.1" x="0px" y="0px" viewBox="0 0 512 512" style="enable-background:new 0 0 512 512;" xml:space="preserve"> <style type="text/css"> .st0{display:none;} .st1{fill:#5382A1;} .st2{fill:#E76F00;} .st3{fill:#61DAFB;} .st4{fill:#DD0031;} .st5{fill:#C3002F;} .st6{fill:#FFFFFF;} .st7{fill:#4DBA87;} .st8{fill:#435466;} .st9{display:inline;fill:#00ACD7;} .st10{fill:#512BD4;} .st11{fill-rule:evenodd;clip-rule:evenodd;fill:#8993BE;} .st12{fill-rule:evenodd;clip-rule:evenodd;fill:#232531;} .st13{fill:#5C8DBC;} .st14{fill:#1A4674;} .st15{fill:#1B598E;} .st16{fill:#8CC84B;} .st17{fill:url(#SVGID_1_);} .st18{fill:url(#SVGID_00000158751445272618736620000015748817618178617258_);} .st19{fill:#DC395F;} .st20{fill:#001E36;} .st21{display:inline;fill:#31A8FF;} .st22{fill:#470137;} .st23{display:inline;fill:#FF61F6;} .st24{fill:none;} .st25{fill:#1ABCFE;} .st26{fill:#0ACF83;} .st27{fill:#FF7262;} .st28{fill:#F24E1E;} .st29{fill:#A259FF;} .st30{display:inline;fill-rule:evenodd;clip-rule:evenodd;fill:#EA6C00;} .st31{display:inline;fill-rule:evenodd;clip-rule:evenodd;fill:#FDAD00;} .st32{display:inline;fill-rule:evenodd;clip-rule:evenodd;fill:#FDD231;} .st33{display:inline;fill-rule:evenodd;clip-rule:evenodd;fill:#FEEEB7;} .st34{display:inline;fill:#0091E2;} .st35{display:inline;fill:#326DE6;} .st36{display:inline;fill:#FFFFFF;} .st37{display:inline;fill-rule:evenodd;clip-rule:evenodd;fill:#5798F5;} .st38{display:inline;fill:url(#SVGID_00000127019234953232537280000016751632631037225633_);} .st39{display:inline;fill:url(#SVGID_00000044880498756028456630000004192999428929003705_);} .st40{display:inline;fill:url(#SVGID_00000086693253646922544760000007227913246100637577_);} .st41{display:inline;fill:url(#SVGID_00000109709334457169665490000010395908058103391654_);} .st42{display:inline;fill:url(#SVGID_00000015353458853439440420000003945070236803855512_);} .st43{display:inline;fill:url(#SVGID_00000062902506909383832600000015935444812002565563_);} .st44{display:inline;fill:url(#SVGID_00000071532228070488571660000017658758192205637053_);} .st45{display:inline;fill:url(#SVGID_00000115493312906984294290000009952488374000804282_);} .st46{display:inline;fill:url(#SVGID_00000098906886885334216540000009162345438126673339_);} .st47{display:inline;fill:url(#SVGID_00000114796087900892888940000011565667807933830556_);} .st48{display:inline;fill:#252F3E;} .st49{display:inline;} .st50{fill-rule:evenodd;clip-rule:evenodd;fill:#FF9900;} .st51{display:inline;fill:#0F1689;} .st52{display:inline;fill:url(#SVGID_00000033337064534215731980000015744956303417575846_);} .st53{display:inline;opacity:0.45;enable-background:new ;} .st54{display:inline;opacity:0.6;enable-background:new ;} .st55{display:inline;opacity:0.8;enable-background:new ;} .st56{display:inline;fill:url(#SVGID_00000009586809044139161350000013470378569058518658_);} .st57{display:inline;fill:url(#SVGID_00000052072387351130482420000000326318147442848136_);} .st58{display:inline;fill:#23292F;} .st59{display:inline;fill:#3DDB85;} .st60{display:inline;fill:#343434;} .st61{display:inline;fill:#8C8C8C;} .st62{display:inline;fill:#3C3C3B;} .st63{display:inline;fill:#141414;} .st64{display:inline;fill:#393939;} .st65{display:inline;fill-rule:evenodd;clip-rule:evenodd;fill:#02539A;} .st66{fill-rule:evenodd;clip-rule:evenodd;fill:#45D1FD;fill-opacity:0.85;} .st67{fill-rule:evenodd;clip-rule:evenodd;fill:#45D1FD;} .st68{display:inline;fill:#E23237;} .st69{display:inline;fill:#B52E31;} .st70{display:inline;fill:#01A71C;} .st71{display:inline;fill:#222C37;} .st72{fill-rule:evenodd;clip-rule:evenodd;fill:#AFAFDE;stroke:#000000;stroke-width:5.5844;stroke-linejoin:round;stroke-miterlimit:5.5844;} .st73{fill-rule:evenodd;clip-rule:evenodd;fill:#353564;stroke:#000000;stroke-width:5.5844;stroke-linejoin:round;stroke-miterlimit:5.5844;} .st74{fill-rule:evenodd;clip-rule:evenodd;fill:#E9E9FF;stroke:#000000;stroke-width:5.5844;stroke-linejoin:round;stroke-miterlimit:5.5844;} .st75{fill-rule:evenodd;clip-rule:evenodd;fill:#19AEFF;stroke:#000000;stroke-width:5.5844;stroke-linejoin:round;stroke-miterlimit:5.5844;} .st76{fill-rule:evenodd;clip-rule:evenodd;fill:#0084C8;stroke:#000000;stroke-width:5.5844;stroke-linejoin:round;stroke-miterlimit:5.5844;} .st77{fill:none;stroke:#000000;stroke-width:8.3766;stroke-miterlimit:5.5844;} </style> <g id="Layer_1" class="st0"> <g id="java"> <path class="st1" d="M188.75,395.96c0,0-19.57,11.38,13.92,15.23c40.57,4.63,61.31,3.96,106.02-4.5c0,0,11.75,7.37,28.17,13.75 C236.63,463.4,110.02,417.96,188.75,395.96 M176.5,339.9c0,0-21.94,16.24,11.57,19.71c43.34,4.47,77.57,4.84,136.79-6.57 c0,0,8.19,8.3,21.07,12.85C224.75,401.33,89.78,368.69,176.5,339.9"></path> <path class="st2" d="M279.75,244.81c24.7,28.43-6.49,54.02-6.49,54.02s62.71-32.37,33.91-72.91 c-26.9-37.81-47.52-56.59,64.14-121.35C371.31,104.57,196.03,148.35,279.75,244.81"></path> <path class="st1" d="M412.31,437.42c0,0,14.48,11.93-15.95,21.16c-57.85,17.53-240.79,22.82-291.61,0.7 c-18.27-7.95,15.99-18.98,26.77-21.29c11.24-2.44,17.66-1.98,17.66-1.98c-20.32-14.31-131.32,28.1-56.38,40.25 C297.15,509.39,465.32,461.33,412.31,437.42 M198.16,281.82c0,0-93.06,22.1-32.95,30.13c25.38,3.4,75.97,2.63,123.09-1.32 c38.51-3.25,77.18-10.15,77.18-10.15s-13.58,5.82-23.4,12.52c-94.5,24.85-277.04,13.29-224.49-12.13 C162.02,279.38,198.16,281.82,198.16,281.82 M365.09,375.13c96.06-49.92,51.65-97.89,20.64-91.42c-7.6,1.58-10.99,2.95-10.99,2.95 s2.82-4.42,8.21-6.33c61.33-21.56,108.49,63.59-19.8,97.32C363.15,377.65,364.64,376.32,365.09,375.13"></path> <path class="st2" d="M307.17,0c0,0,53.2,53.22-50.46,135.05c-83.12,65.64-18.95,103.07-0.03,145.84 c-48.52-43.78-84.13-82.31-60.24-118.18C231.5,110.06,328.64,84.53,307.17,0"></path> <path class="st1" d="M207.6,510.39c92.2,5.9,233.8-3.27,237.15-46.9c0,0-6.44,16.54-76.2,29.67 c-78.7,14.81-175.76,13.08-233.33,3.59C135.21,496.75,147,506.5,207.6,510.39"></path> </g> <g id="react"> <path class="st3" d="M512,256.01c0-33.86-42.41-65.96-107.43-85.86c15-66.27,8.34-118.99-21.05-135.87 c-6.77-3.96-14.69-5.84-23.34-5.84v23.24c4.79,0,8.65,0.94,11.88,2.71c14.17,8.13,20.32,39.07,15.53,78.88 c-1.15,9.79-3.02,20.11-5.31,30.63c-20.42-5-42.72-8.86-66.17-11.36c-14.07-19.28-28.65-36.78-43.35-52.1 c33.97-31.57,65.85-48.87,87.53-48.87V28.34c-28.65,0-66.17,20.42-104.09,55.85c-37.93-35.22-75.44-55.43-104.09-55.43v23.24 c21.57,0,53.56,17.19,87.53,48.56c-14.59,15.32-29.18,32.72-43.03,51.99c-23.55,2.5-45.85,6.36-66.27,11.46 c-2.4-10.42-4.17-20.53-5.42-30.22c-4.9-39.8,1.15-70.75,15.21-78.98c3.13-1.88,7.19-2.71,11.98-2.71V28.86 c-8.75,0-16.67,1.88-23.55,5.84c-29.28,16.88-35.84,69.5-20.74,135.56C43.01,190.26,0.81,222.25,0.81,256.01 c0,33.86,42.41,65.96,107.43,85.86c-15,66.27-8.34,118.99,21.05,135.87c6.77,3.96,14.69,5.84,23.44,5.84 c28.65,0,66.17-20.42,104.09-55.85c37.93,35.22,75.44,55.43,104.09,55.43c8.75,0,16.67-1.88,23.55-5.84 c29.28-16.88,35.84-69.5,20.74-135.56C469.8,321.86,512,289.77,512,256.01L512,256.01z M376.34,186.51 c-3.86,13.44-8.65,27.3-14.07,41.16c-4.27-8.34-8.75-16.67-13.65-25.01c-4.79-8.34-9.9-16.46-15-24.38 C348.41,180.47,362.69,183.18,376.34,186.51L376.34,186.51z M328.61,297.48c-8.13,14.07-16.46,27.4-25.11,39.8 c-15.53,1.35-31.26,2.08-47.1,2.08c-15.73,0-31.47-0.73-46.89-1.98c-8.65-12.4-17.09-25.63-25.22-39.59 c-7.92-13.65-15.11-27.51-21.67-41.47c6.46-13.96,13.75-27.92,21.57-41.57c8.13-14.07,16.46-27.4,25.11-39.8 c15.53-1.35,31.26-2.08,47.1-2.08c15.73,0,31.47,0.73,46.89,1.98c8.65,12.4,17.09,25.63,25.22,39.59 c7.92,13.65,15.11,27.51,21.67,41.47C343.62,269.87,336.43,283.83,328.61,297.48L328.61,297.48z M362.27,283.93 c5.63,13.96,10.42,27.92,14.38,41.47c-13.65,3.33-28.03,6.15-42.93,8.34c5.11-8.02,10.21-16.25,15-24.69 C353.52,300.71,358,292.27,362.27,283.93L362.27,283.93z M256.61,395.11c-9.69-10-19.38-21.15-28.97-33.34 c9.38,0.42,18.96,0.73,28.65,0.73c9.79,0,19.48-0.21,28.97-0.73C275.89,373.96,266.2,385.11,256.61,395.11z M179.09,333.74 c-14.8-2.19-29.07-4.9-42.72-8.23c3.86-13.44,8.65-27.3,14.07-41.16c4.27,8.34,8.75,16.67,13.65,25.01 C168.98,317.69,173.98,325.82,179.09,333.74z M256.09,116.91c9.69,10,19.38,21.15,28.97,33.34c-9.38-0.42-18.96-0.73-28.65-0.73 c-9.79,0-19.48,0.21-28.97,0.73C236.82,138.06,246.51,126.91,256.09,116.91z M178.99,178.28c-5.11,8.02-10.21,16.25-15,24.69 c-4.79,8.34-9.27,16.67-13.55,25.01c-5.63-13.96-10.42-27.92-14.38-41.47C149.71,183.28,164.09,180.47,178.99,178.28 L178.99,178.28z M84.69,308.73C47.8,293,23.94,272.37,23.94,256.01s23.86-37.09,60.75-52.72c8.96-3.86,18.76-7.29,28.86-10.52 c5.94,20.42,13.75,41.68,23.44,63.46c-9.59,21.67-17.3,42.83-23.13,63.14C103.55,316.13,93.75,312.59,84.69,308.73L84.69,308.73z M140.75,457.63c-14.17-8.13-20.32-39.07-15.53-78.88c1.15-9.79,3.02-20.11,5.31-30.63c20.42,5,42.72,8.86,66.17,11.36 c14.07,19.28,28.65,36.78,43.35,52.1c-33.97,31.57-65.85,48.87-87.53,48.87C147.83,460.34,143.87,459.4,140.75,457.63 L140.75,457.63z M387.9,378.23c4.9,39.8-1.15,70.75-15.21,78.98c-3.13,1.88-7.19,2.71-11.98,2.71 c-21.57,0-53.56-17.19-87.53-48.56c14.59-15.32,29.18-32.72,43.03-51.99c23.55-2.5,45.85-6.36,66.27-11.46 C384.88,358.44,386.75,368.54,387.9,378.23z M428.02,308.73c-8.96,3.86-18.76,7.29-28.86,10.52 c-5.94-20.42-13.75-41.68-23.44-63.46c9.59-21.67,17.3-42.83,23.13-63.14c10.32,3.23,20.11,6.77,29.28,10.63 c36.89,15.73,60.75,36.36,60.75,52.72C488.76,272.37,464.9,293.1,428.02,308.73L428.02,308.73z"></path> <circle class="st3" cx="256.3" cy="256.01" r="47.62"></circle> </g> <g id="angular"> <polygon class="st4" points="255.6,0 255.6,0 255.6,0 17.26,84.99 53.61,400.13 255.6,512 255.6,512 255.6,512 457.58,400.13 493.93,84.99 "></polygon> <polygon class="st5" points="255.6,0 255.6,56.83 255.6,56.58 255.6,315.9 255.6,315.9 255.6,512 255.6,512 457.58,400.13 493.93,84.99 "></polygon> <path class="st6" d="M255.6,56.58L106.6,390.66l0,0h55.55l0,0l29.95-74.75h126.46l29.95,74.75l0,0h55.55l0,0L255.6,56.58 L255.6,56.58L255.6,56.58L255.6,56.58L255.6,56.58z M299.12,269.82h-87.04l43.52-104.7L299.12,269.82z"></path> </g> <g id="vue"> <path class="st7" d="M315.13,34.42L256,136.82l-59.13-102.4H0l256,443.41L512,34.42H315.13z"></path> <path class="st8" d="M315.13,34.42L256,136.82l-59.13-102.4H102.4L256,300.46L409.6,34.42H315.13z"></path> </g> <g> <path class="st9" d="M38.49,218.36c-0.71,0-1.41-0.71-0.71-1.41l4.95-7.07c0.71-0.71,1.41-1.41,2.83-1.41h89.13 c0.71,0,1.41,0.71,0.71,1.41l-4.24,6.37c-0.71,0.71-1.41,1.41-2.83,1.41L38.49,218.36z M1,241c-0.71,0-1.41-0.71-0.71-1.41 l4.95-7.07c0.71-0.71,1.41-1.41,2.83-1.41h113.89c0.71,0,1.41,0.71,1.41,1.41l-2.12,7.07c0,0.71-1.41,1.41-2.12,1.41H1z M61.13,264.34c-0.71,0-1.41-0.71-0.71-1.41l3.54-6.37c0.71-0.71,1.41-1.41,2.83-1.41h49.52c0.71,0,1.41,0.71,1.41,1.41 l-0.71,5.66c0,0.71-0.71,1.41-1.41,1.41L61.13,264.34z M320.04,213.41l-41.74,10.61c-3.54,0.71-4.24,1.41-7.07-2.83 c-3.54-4.24-6.37-7.07-12.03-9.2c-15.56-7.78-31.13-5.66-45.27,3.54c-16.98,10.61-25.47,26.88-25.47,47.4 c0,19.81,14.15,36.08,33.96,38.91c16.98,2.12,31.13-3.54,42.44-16.27c2.12-2.83,4.24-5.66,7.07-9.2h-48.1 c-4.95,0-6.37-3.54-4.95-7.78c3.54-7.78,9.2-20.51,12.73-26.88c0.71-1.41,2.83-4.24,6.37-4.24h90.55 c-0.71,7.07-0.71,13.44-1.41,20.51c-2.83,17.69-9.2,34.66-20.51,48.81c-17.69,23.34-41.03,38.2-70.74,42.44 c-24.76,3.54-47.4-1.41-67.2-16.27c-18.39-14.15-29-32.54-31.83-55.18c-3.54-26.88,4.95-51.64,21.22-72.86 c17.69-23.34,41.03-38.2,70.03-43.15c23.34-4.24,45.98-1.41,65.79,12.03c13.44,8.49,22.64,20.51,29,35.37 C323.58,212,322.87,212.7,320.04,213.41L320.04,213.41z"></path> <path class="st9" d="M402.1,351.35c-22.64-0.71-43.15-7.07-60.84-21.93c-14.86-12.73-24.05-29-26.88-48.1 c-4.24-28.3,3.54-53.06,20.51-74.99c18.39-24.05,40.32-36.08,70.03-41.74c25.47-4.24,49.52-2.12,70.74,12.73 c19.81,13.44,31.83,31.83,35.37,55.89c4.24,33.96-5.66,60.84-28.3,84.18c-16.27,16.98-36.79,26.88-59.42,31.83 C415.54,350.65,408.47,350.65,402.1,351.35z M461.52,250.9c0-3.54,0-5.66-0.71-8.49c-4.24-24.76-26.88-38.91-50.93-33.25 c-23.34,4.95-38.2,19.81-43.86,43.15c-4.24,19.1,4.95,38.91,22.64,47.4c13.44,5.66,27.59,4.95,40.32-1.41 C449.5,288.4,460.11,272.13,461.52,250.9L461.52,250.9z"></path> </g> <g id="_x2E_net"> <rect x="0" class="st10" width="512" height="512"></rect> <path class="st6" d="M91.25,327.11c-3.62,0-6.7-1.21-9.23-3.62c-2.53-2.47-3.8-5.41-3.8-8.82c0-3.46,1.27-6.43,3.8-8.91 c2.53-2.47,5.61-3.71,9.23-3.71c3.68,0,6.79,1.24,9.32,3.71c2.59,2.47,3.89,5.44,3.89,8.91c0,3.4-1.3,6.34-3.89,8.82 C98.04,325.9,94.94,327.11,91.25,327.11z"></path> <path class="st6" d="M235.98,325.07h-23.53l-62-97.81c-1.57-2.47-2.87-5.04-3.89-7.7h-0.54c0.48,2.85,0.72,8.94,0.72,18.28v87.23 h-20.82V192h25.07l59.92,95.49c2.53,3.96,4.16,6.68,4.89,8.17h0.36c-0.6-3.53-0.9-9.5-0.9-17.91V192h20.73V325.07z"></path> <path class="st6" d="M337.35,325.07h-72.86V192h69.96v18.75h-48.42v37.67h44.62v18.65h-44.62v39.35h51.32V325.07z"></path> <path class="st6" d="M440.89,210.75H403.6v114.32h-21.54V210.75h-37.2V192h96.03V210.75z"></path> </g> <g id="php"> <ellipse class="st11" cx="256" cy="256.43" rx="256" ry="133.26"></ellipse> <path class="st12" d="M71.89,335.33L99.95,193.3h64.87c28.05,1.75,42.08,15.78,42.08,40.33c0,42.08-33.31,66.63-63.12,64.88 h-31.56l-7.01,36.82H71.89z M119.23,272.21l8.77-52.6h22.79c12.27,0,21.04,5.26,21.04,15.78c-1.75,29.81-15.78,35.07-31.56,36.82 L119.23,272.21L119.23,272.21z M200.38,298.51l28.05-142.03h33.32l-7.01,36.82h31.56c28.06,1.75,38.58,15.78,35.07,33.32 l-12.27,71.89h-35.07l12.27-64.88c1.75-8.77,1.75-14.03-10.52-14.03h-26.3l-15.78,78.9H200.38z M306.85,335.33L334.9,193.3h64.88 c28.06,1.75,42.08,15.78,42.08,40.33c0,42.08-33.32,66.63-63.12,64.88h-31.56l-7.01,36.82H306.85z M354.19,272.21l8.77-52.6h22.8 c12.27,0,21.04,5.26,21.04,15.78c-1.75,29.81-15.78,35.07-31.56,36.82H354.19L354.19,272.21z"></path> </g> <g id="c_x2B__x2B_"> <path class="st13" d="M483.96,150.53c0-8.61-1.84-16.22-5.57-22.75c-3.66-6.42-9.13-11.8-16.48-16.06 C401.27,76.76,340.56,41.9,279.94,6.89c-16.34-9.44-32.19-9.09-48.42,0.48C207.38,21.61,86.53,90.85,50.51,111.71 c-14.83,8.59-22.05,21.73-22.05,38.8c-0.02,70.32,0,140.65-0.02,210.97c0,8.42,1.77,15.88,5.33,22.31 c3.66,6.61,9.21,12.14,16.73,16.49c36.02,20.86,156.89,90.1,181.02,104.33c16.23,9.58,32.08,9.92,48.43,0.48 c60.63-35.01,121.34-69.87,181.99-104.84c7.52-4.35,13.07-9.88,16.73-16.49c3.55-6.43,5.32-13.89,5.32-22.31 C483.99,361.47,483.99,220.85,483.96,150.53"></path> <path class="st14" d="M256.91,255.31L33.76,383.8c3.66,6.61,9.21,12.14,16.73,16.49c36.02,20.86,156.89,90.1,181.02,104.33 c16.23,9.58,32.08,9.92,48.43,0.48c60.63-35.01,121.34-69.87,181.99-104.84c7.52-4.35,13.07-9.88,16.73-16.49L256.91,255.31"></path> <path class="st14" d="M190.82,293.37c12.98,22.67,37.39,37.96,65.4,37.96c28.17,0,52.72-15.48,65.64-38.39l-64.95-37.62 L190.82,293.37"></path> <path class="st15" d="M483.96,150.53c0-8.61-1.84-16.22-5.57-22.75L256.91,255.31l221.75,128.46c3.55-6.43,5.32-13.89,5.32-22.31 C483.99,361.47,483.99,220.85,483.96,150.53"></path> <path class="st6" d="M471.77,264.5h-17.33v17.33h-17.33V264.5h-17.33v-17.33h17.33v-17.33h17.33v17.33h17.33V264.5 M408.54,264.5 h-17.33v17.33h-17.33V264.5h-17.33v-17.33h17.33v-17.33h17.33v17.33h17.33V264.5"></path> <path class="st6" d="M321.86,292.94c-12.92,22.91-37.47,38.39-65.64,38.39c-28,0-52.41-15.29-65.4-37.96 c-6.52-11.37-9.95-24.26-9.94-37.37c0-41.6,33.73-75.33,75.33-75.33c27.82,0,52.1,15.1,65.15,37.54l65.84-37.92 c-26.17-45.18-75.03-75.57-131-75.57c-83.55,0-151.28,67.73-151.28,151.28c0,27.41,7.29,53.11,20.04,75.29 c26.11,45.42,75.11,76,131.25,76c56.24,0,105.32-30.7,131.39-76.25L321.86,292.94"></path> </g> <g id="node.js"> <path class="st16" d="M234.89,5.46c12.7-7.27,29.23-7.3,41.92,0c63.81,36.06,127.65,72.06,191.45,108.14 c12,6.76,20.03,20.12,19.91,33.94v216.94c0.09,14.4-8.73,28.07-21.39,34.68C403.17,435.02,339.6,470.93,276,506.79 c-12.96,7.41-29.83,6.84-42.38-1.18c-19.07-11.05-38.17-22.05-57.24-33.1c-3.9-2.32-8.29-4.17-11.04-7.95 c2.43-3.28,6.78-3.69,10.32-5.12c7.96-2.53,15.27-6.59,22.58-10.54c1.85-1.27,4.11-0.78,5.88,0.35 c16.31,9.35,32.47,18.97,48.83,28.23c3.49,2.01,7.02-0.66,10.01-2.32c62.41-35.28,124.91-70.42,187.31-105.7 c2.31-1.11,3.59-3.57,3.4-6.1c0.04-71.56,0.01-143.14,0.02-214.7c0.26-2.87-1.4-5.52-4-6.69 c-63.38-35.7-126.73-71.44-190.11-107.15c-2.25-1.55-5.21-1.55-7.47-0.01C188.75,70.52,125.41,106.3,62.04,142 c-2.59,1.18-4.33,3.78-4.02,6.66c0.01,71.56,0,143.14,0,214.71c-0.23,2.53,1.15,4.93,3.45,6.02 c16.91,9.59,33.84,19.11,50.77,28.67c9.53,5.13,21.24,8.18,31.74,4.25c9.27-3.32,15.77-12.78,15.59-22.62 c0.09-71.15-0.04-142.3,0.07-213.44c-0.23-3.16,2.76-5.77,5.84-5.47c8.13-0.05,16.26-0.11,24.39,0.02 c3.39-0.08,5.73,3.32,5.31,6.51c-0.03,71.6,0.09,143.19-0.05,214.79c0.02,19.08-7.82,39.84-25.47,49.18 c-21.74,11.26-48.62,8.88-70.1-1.93c-18.6-9.28-36.34-20.24-54.61-30.18c-12.69-6.57-21.47-20.3-21.38-34.69V147.54 c-0.13-14.11,8.21-27.71,20.59-34.37C107.73,77.28,171.31,41.37,234.89,5.46z"></path> <path class="st16" d="M290.37,155.74c27.74-1.79,57.43-1.06,82.39,12.61c19.32,10.47,30.04,32.45,30.38,53.91 c-0.54,2.9-3.57,4.49-6.33,4.29c-8.05-0.01-16.1,0.11-24.14-0.05c-3.41,0.13-5.4-3.02-5.83-6.03 c-2.31-10.27-7.91-20.45-17.58-25.4c-14.84-7.43-32.05-7.06-48.23-6.9c-11.81,0.63-24.52,1.65-34.53,8.6 c-7.68,5.26-10.02,15.89-7.28,24.44c2.59,6.14,9.68,8.13,15.48,9.95c33.42,8.74,68.84,7.87,101.63,19.38 c13.57,4.69,26.85,13.81,31.5,28.02c6.08,19.05,3.41,41.82-10.14,57.11c-10.99,12.58-27,19.43-42.96,23.15 c-21.24,4.74-43.28,4.86-64.85,2.75c-20.28-2.31-41.39-7.64-57.04-21.46c-13.39-11.62-19.93-29.74-19.28-47.22 c0.15-2.95,3.09-5.01,5.92-4.77c8.1-0.07,16.21-0.09,24.31,0.01c3.24-0.23,5.64,2.57,5.8,5.62c1.5,9.79,5.17,20.06,13.71,25.86 c16.47,10.63,37.14,9.9,55.99,10.2c15.62-0.69,33.16-0.9,45.91-11.23c6.73-5.89,8.72-15.74,6.9-24.22 c-1.97-7.16-9.46-10.49-15.89-12.67c-33-10.44-68.81-6.65-101.49-18.45c-13.27-4.69-26.09-13.55-31.19-27.18 c-7.11-19.29-3.85-43.15,11.12-57.92C249.26,163.42,270.33,157.76,290.37,155.74L290.37,155.74z"></path> </g> <g id="python"> <linearGradient id="SVGID_1_" gradientUnits="userSpaceOnUse" x1="1.0246" y1="512.975" x2="1.1615" y2="512.8392" gradientTransform="matrix(1849.2675 0 0 -1853.3917 -1846.8516 950791.625)"> <stop offset="0" style="stop-color:#387EB8"></stop> <stop offset="1" style="stop-color:#366994"></stop> </linearGradient> <path class="st17" d="M254.16,0.88c-129.98,0-121.86,56.37-121.86,56.37l0.14,58.4h124.04v17.53H83.17 c0,0-83.17-9.43-83.17,121.71c0,131.15,72.6,126.5,72.6,126.5h43.32v-60.86c0,0-2.34-72.6,71.44-72.6h123.02 c0,0,69.12,1.12,69.12-66.8V68.84C379.49,68.84,389.99,0.88,254.16,0.88z M185.76,40.16c12.31-0.01,22.3,9.96,22.31,22.27 c0,0.01,0,0.03,0,0.04c0.01,12.31-9.96,22.3-22.27,22.31c-0.01,0-0.03,0-0.04,0c-12.31,0.01-22.3-9.96-22.31-22.27 c0-0.01,0-0.03,0-0.04c-0.01-12.31,9.96-22.3,22.27-22.31C185.74,40.16,185.75,40.16,185.76,40.16z"></path> <linearGradient id="SVGID_00000010273508225462675510000017014146191467317689_" gradientUnits="userSpaceOnUse" x1="0.7604" y1="513.2265" x2="0.9074" y2="513.0872" gradientTransform="matrix(1849.2671 0 0 -1853.3918 -1202.3882 951419.0625)"> <stop offset="0" style="stop-color:#FFE052"></stop> <stop offset="1" style="stop-color:#FFC331"></stop> </linearGradient> <path style="fill:url(#SVGID_00000010273508225462675510000017014146191467317689_);" d="M257.85,510.22 c129.98,0,121.86-56.37,121.86-56.37l-0.14-58.39H255.53v-17.53h173.3c0,0,83.17,9.43,83.17-121.72 c0-131.15-72.6-126.5-72.6-126.5h-43.32v60.86c0,0,2.34,72.6-71.44,72.6H201.62c0,0-69.12-1.12-69.12,66.8v112.3 C132.51,442.26,122.01,510.22,257.85,510.22L257.85,510.22z M326.24,470.96c-12.31,0.01-22.3-9.96-22.31-22.27 c0-0.01,0-0.03,0-0.04c-0.01-12.31,9.96-22.3,22.27-22.32c0.01,0,0.03,0,0.04,0c12.31-0.01,22.3,9.96,22.31,22.27 c0,0.01,0,0.03,0,0.04c0.01,12.31-9.96,22.3-22.27,22.31C326.27,470.95,326.25,470.95,326.24,470.96L326.24,470.96z"></path> </g> <g id="invision"> <path class="st19" d="M465.59,0H46.41C20.78,0,0,20.78,0,46.41v419.17C0,491.22,20.78,512,46.41,512h419.17 c25.63,0,46.41-20.78,46.41-46.41V46.41C512,20.78,491.22,0,465.59,0"></path> <path class="st6" d="M171.11,161.09c17.02,0,31.28-13.34,31.28-30.82c0-17.47-14.26-30.81-31.28-30.81s-31.27,13.34-31.27,30.81 C139.84,147.75,154.09,161.09,171.11,161.09 M106.26,326.13c-1.84,7.82-2.76,16.26-2.76,23.15c0,27.14,14.72,45.16,46,45.16 c25.94,0,46.97-15.4,62.11-40.28l-9.25,37.11h51.51l29.44-118.08c7.36-29.9,21.62-45.41,43.24-45.41 c17.02,0,27.6,10.58,27.6,28.06c0,5.06-0.46,10.58-2.3,16.56l-15.18,54.27c-2.3,7.82-3.22,15.64-3.22,23 c0,25.77,15.17,44.61,46.91,44.61c27.14,0,48.75-17.47,60.71-59.33l-20.24-7.81c-10.12,28.04-18.86,33.11-25.76,33.11 c-6.9,0-10.58-4.6-10.58-13.79c0-4.14,0.92-8.73,2.3-14.27l14.72-52.88c3.68-12.42,5.06-23.43,5.06-33.54 c0-39.56-23.92-60.2-52.9-60.2c-27.14,0-54.74,24.48-68.53,50.24l10.12-46.24h-78.65l-11.04,40.73h36.8l-22.66,90.72 c-17.79,39.56-50.48,40.2-54.58,39.28c-6.74-1.52-11.04-4.08-11.04-12.83c0-5.05,0.92-12.3,3.22-21.05l34.5-136.85h-87.39 L93.38,230.3h36.33L106.26,326.13"></path> </g> <g id="photoshop"> <path class="st20" d="M90.67,7.02h330.67c50.13,0,90.67,40.53,90.67,90.67v317.87c0,50.13-40.53,90.67-90.67,90.67H90.67 C40.53,506.22,0,465.68,0,415.55V97.68C0,47.55,40.53,7.02,90.67,7.02z"></path> <g> <path class="st21" d="M115.2,357.1V137.58c0-1.49,0.64-2.35,2.13-2.35c3.63,0,7.04,0,11.95-0.21c5.12-0.21,10.45-0.21,16.21-0.43 s11.95-0.21,18.56-0.43c6.61-0.21,13.01-0.21,19.41-0.21c17.49,0,32,2.13,43.95,6.61c10.67,3.63,20.48,9.6,28.59,17.49 c6.83,6.83,12.16,15.15,15.57,24.32c3.2,8.96,4.91,18.13,4.91,27.73c0,18.35-4.27,33.49-12.8,45.44 c-8.53,11.95-20.48,20.91-34.35,26.03c-14.51,5.33-30.51,7.25-48,7.25c-5.12,0-8.53,0-10.67-0.21c-2.13-0.21-5.12-0.21-9.17-0.21 v68.48c0.21,1.49-0.85,2.77-2.35,2.99h-41.39C116.05,359.87,115.2,359.02,115.2,357.1L115.2,357.1z M161.71,176.4v71.68 c2.99,0.21,5.76,0.43,8.32,0.43h11.31c8.32,0,16.64-1.28,24.53-3.84c6.83-1.92,12.8-5.97,17.49-11.31 c4.48-5.33,6.61-12.59,6.61-21.97c0.21-6.61-1.49-13.23-4.91-18.99c-3.63-5.55-8.75-9.81-14.93-12.16 c-7.89-3.2-16.43-4.48-25.17-4.27c-5.55,0-10.45,0-14.51,0.21C166.19,175.98,163.2,176.19,161.71,176.4L161.71,176.4z M409.6,235.07c-6.4-3.41-13.23-5.76-20.48-7.25c-7.89-1.71-15.79-2.77-23.89-2.77c-4.27-0.21-8.75,0.43-12.8,1.49 c-2.77,0.64-5.12,2.13-6.61,4.27c-1.07,1.71-1.71,3.84-1.71,5.76c0,1.92,0.85,3.84,2.13,5.55c1.92,2.35,4.48,4.27,7.25,5.76 c4.91,2.56,10.03,4.91,15.15,7.04c11.52,3.84,22.61,9.17,32.85,15.57c7.04,4.48,12.8,10.45,16.85,17.71 c3.41,6.83,5.12,14.29,4.91,21.97c0.21,10.03-2.77,20.05-8.32,28.37c-5.97,8.53-14.29,15.15-23.89,18.99 c-10.45,4.48-23.25,6.83-38.61,6.83c-9.81,0-19.41-0.85-29.01-2.77c-7.47-1.28-14.93-3.63-21.76-6.83 c-1.49-0.85-2.56-2.35-2.35-4.05v-37.12c0-0.64,0.21-1.49,0.85-1.92c0.64-0.43,1.28-0.21,1.92,0.21 c8.32,4.91,17.07,8.32,26.45,10.45c8.11,2.13,16.64,3.2,25.17,3.2c8.11,0,13.87-1.07,17.71-2.99c3.41-1.49,5.76-5.12,5.76-8.96 c0-2.99-1.71-5.76-5.12-8.53c-3.41-2.77-10.45-5.97-20.91-10.03c-10.88-3.84-20.91-8.96-30.29-15.36 c-6.61-4.69-12.16-10.88-16.21-18.13c-3.41-6.83-5.12-14.29-4.91-21.76c0-9.17,2.56-17.92,7.25-25.81 c5.33-8.53,13.23-15.36,22.4-19.63c10.03-5.12,22.61-7.47,37.76-7.47c8.75,0,17.71,0.64,26.45,1.92 c6.4,0.85,12.59,2.56,18.35,4.91c0.85,0.21,1.71,1.07,2.13,1.92c0.21,0.85,0.43,1.71,0.43,2.56v34.77c0,0.85-0.43,1.71-1.07,2.13 C411.52,235.5,410.45,235.5,409.6,235.07L409.6,235.07z"></path> </g> </g> <g id="xd"> <path class="st22" d="M90.67,6.4h330.67C471.47,6.4,512,46.93,512,97.07v317.87c0,50.13-40.53,90.67-90.67,90.67H90.67 C40.53,505.6,0,465.07,0,414.93V97.07C0,46.93,40.53,6.4,90.67,6.4z"></path> <g> <path class="st23" d="M269.23,137.6l-64,105.6l68.27,112c0.43,0.85,0.64,1.71,0.43,2.56c-0.21,0.85-1.07,0.21-2.35,0.43h-48.85 c-3.41,0-5.76-0.21-7.25-2.35c-4.48-8.96-9.17-17.71-13.65-26.67c-4.48-8.75-9.39-17.71-14.51-26.88s-10.24-18.35-15.36-27.73 h-0.43c-4.48,9.17-9.39,18.35-14.29,27.52c-4.91,9.17-9.81,18.35-14.51,27.31c-4.91,8.96-9.81,18.13-14.72,26.88 c-0.85,2.13-2.56,2.35-4.91,2.35H76.16c-0.85,0-1.49,0.43-1.49-0.64c-0.21-0.85,0-1.71,0.43-2.35l66.35-108.8L76.8,137.39 c-0.64-0.85-0.85-1.71-0.43-2.13c0.43-0.64,1.28-0.85,2.13-0.85h48.43c1.07,0,2.13,0.21,2.99,0.43c0.85,0.43,1.49,1.07,2.13,1.92 c4.05,9.17,8.75,18.35,13.65,27.52c5.12,9.17,10.03,18.13,15.36,27.09c5.12,8.96,9.81,17.92,14.29,27.09h0.43 c4.48-9.39,9.17-18.56,13.87-27.52s9.6-17.92,14.51-26.88c4.91-8.96,9.6-18.13,14.29-26.88c0.21-0.85,0.64-1.71,1.28-2.13 c0.85-0.43,1.71-0.64,2.77-0.43h45.01c1.07-0.21,2.13,0.43,2.35,1.49C270.08,136.32,269.65,137.17,269.23,137.6L269.23,137.6z M367.79,362.67c-15.79,0.21-31.57-2.99-45.87-9.6c-13.44-6.19-24.53-16.43-32.21-29.01c-7.89-13.01-11.73-29.23-11.73-48.64 c-0.21-15.79,3.84-31.36,11.73-45.01c8.11-13.87,19.84-25.39,33.92-33.07c14.93-8.32,32.85-12.37,53.97-12.37 c1.07,0,2.56,0,4.48,0.21s4.05,0.21,6.61,0.43v-67.41c0-1.49,0.64-2.35,2.13-2.35h43.31c1.07-0.21,1.92,0.64,2.13,1.49v203.52 c0,3.84,0.21,8.11,0.43,12.8c0.43,4.48,0.64,8.75,0.85,12.37c0,1.49-0.64,2.77-2.13,3.41c-11.09,4.69-22.83,8.11-34.77,10.24 C389.76,361.6,378.88,362.67,367.79,362.67L367.79,362.67z M388.69,320v-93.87c-1.92-0.43-3.84-0.85-5.76-1.07 c-2.35-0.21-4.69-0.43-7.04-0.43c-8.32,0-16.64,1.71-24.11,5.55c-7.25,3.63-13.44,8.96-18.13,15.79s-7.04,16-7.04,27.09 c-0.21,7.47,1.07,14.93,3.63,21.97c2.13,5.76,5.33,10.88,9.6,15.15c4.05,3.84,8.96,6.83,14.51,8.53 c5.76,1.92,11.73,2.77,17.71,2.77c3.2,0,6.19-0.21,8.96-0.43C383.79,321.28,386.13,320.85,388.69,320L388.69,320z"></path> </g> </g> <g id="figma"> <path class="st24" d="M84.94,0.19h341.27V512H84.94V0.19z"></path> <path class="st25" d="M255.48,256.1c0-47.04,38.13-85.37,85.37-85.37c47.04,0,85.37,38.13,85.37,85.37 c0,47.04-38.13,85.37-85.37,85.37C293.81,341.46,255.48,303.13,255.48,256.1L255.48,256.1z"></path> <path class="st26" d="M84.94,426.63c0-47.04,38.13-85.37,85.37-85.37h85.37v85.37c0,47.04-38.13,85.37-85.37,85.37 S84.94,473.87,84.94,426.63L84.94,426.63z"></path> <path class="st27" d="M255.48,0.19v170.54h85.37c47.04,0,85.37-38.13,85.37-85.37C426.21,38.33,388.08,0,340.84,0h-85.37V0.19z"></path> <path class="st28" d="M84.94,85.56c0,47.04,38.13,85.37,85.37,85.37h85.37V0.19h-85.37C123.07,0.19,84.94,38.33,84.94,85.56z"></path> <path class="st29" d="M84.94,256.1c0,47.04,38.13,85.37,85.37,85.37h85.37V170.73h-85.37C123.07,170.73,84.94,209.06,84.94,256.1z "></path> </g> <g id="sketch_00000141418527814129543400000015193042472758043070_"> <g transform="translate(.17 30.901)"> <path id="a_00000060747903231934960030000007167063581957555624_" class="st30" d="M104.49,189l151.7,296.92L1.21,189H104.49z"></path> </g> <g transform="matrix(-1 0 0 1 94.64 30.901)"> <path id="b_00000139285708304899393280000005762729069967877264_" class="st30" d="M407.93,189l-151.7,296.92L511.21,189H407.93z "></path> </g> <g transform="translate(19.3 30.901)"> <path id="c_00000097490927140605863330000015463547470339401350_" class="st31" d="M104.49,189h303.4l-151.7,296.92L104.49,189z"></path> </g> <g transform="translate(19.3 .42)"> <path id="d_00000051348932030511934840000005047439691557328523_" class="st32" d="M256.19,24.45L112.47,39.64L104.49,189 L256.19,24.45z"></path> </g> <g transform="matrix(-1 0 0 1 75.5 .42)"> <path id="e_00000158725482766545831320000018385337995885029823_" class="st32" d="M256.19,24.45L399.9,39.64L407.88,189 L256.19,24.45z"></path> </g> <g transform="matrix(-1 0 0 1 94.64 3.234)"> <path id="f_00000105407137523744697220000002544245380125051837_" class="st31" d="M511.21,189L399.95,39.64L407.93,189H511.21z"></path> </g> <g transform="translate(.17 3.234)"> <path id="g_00000088097646259412219430000008360362251052570292_" class="st31" d="M1.21,189L112.48,39.64L104.49,189H1.21z"></path> </g> <g transform="translate(19.3 .42)"> <path id="h_00000009587639153010644530000017037189472060472203_" class="st33" d="M256.19,24.45L104.49,189h303.4L256.19,24.45z "></path> </g> </g> </g> <g id="Layer_2" class="st0"> <g id="docker"> <path class="st34" d="M507.01,221.64c-1.42-1.19-14.25-10.92-41.79-10.92c-7.12,0-14.49,0.71-21.61,1.9 c-5.22-36.33-35.38-53.9-36.57-54.85l-7.36-4.27l-4.75,6.89c-5.94,9.26-10.45,19.71-13.06,30.4c-4.99,20.66-1.9,40.13,8.55,56.75 c-12.59,7.12-33.01,8.79-37.28,9.02H15.94c-8.79,0-15.91,7.12-15.91,15.91c-0.47,29.45,4.51,58.89,14.72,86.67 c11.64,30.4,28.97,52.95,51.29,66.73c25.17,15.44,66.25,24.22,112.56,24.22c20.9,0,41.79-1.9,62.45-5.7 c28.73-5.22,56.28-15.2,81.69-29.68c20.9-12.11,39.66-27.55,55.57-45.59c26.83-30.16,42.74-63.88,54.38-93.8h4.75 c29.21,0,47.26-11.64,57.23-21.61c6.65-6.17,11.64-13.77,15.2-22.32l2.14-6.17L507.01,221.64z"></path> <path class="st34" d="M47.29,246.81H92.4c2.14,0,4.04-1.66,4.04-4.04v-40.37c0-2.14-1.66-4.04-4.04-4.04H47.29 c-2.14,0-4.04,1.66-4.04,4.04v40.37C43.49,245.15,45.15,246.81,47.29,246.81z M109.5,246.81h45.12c2.14,0,4.04-1.66,4.04-4.04 v-40.37c0-2.14-1.66-4.04-4.04-4.04H109.5c-2.14,0-4.04,1.66-4.04,4.04v40.37C105.7,245.15,107.36,246.81,109.5,246.81 M172.9,246.81h45.12c2.14,0,4.04-1.66,4.04-4.04v-40.37c0-2.14-1.66-4.04-4.04-4.04H172.9c-2.14,0-4.04,1.66-4.04,4.04v40.37 C168.87,245.15,170.53,246.81,172.9,246.81z M235.36,246.81h45.12c2.14,0,4.04-1.66,4.04-4.04v-40.37c0-2.14-1.66-4.04-4.04-4.04 h-45.12c-2.14,0-4.04,1.66-4.04,4.04v40.37C231.32,245.15,233.22,246.81,235.36,246.81z M109.5,189.11h45.12 c2.14,0,4.04-1.9,4.04-4.04V144.7c0-2.14-1.66-4.04-4.04-4.04H109.5c-2.14,0-4.04,1.66-4.04,4.04v40.37 C105.7,187.21,107.36,189.11,109.5,189.11 M172.9,189.11h45.12c2.14,0,4.04-1.9,4.04-4.04V144.7c0-2.14-1.66-4.04-4.04-4.04H172.9 c-2.14,0-4.04,1.66-4.04,4.04v40.37C168.87,187.21,170.53,189.11,172.9,189.11 M235.36,189.11h45.12c2.14,0,4.04-1.9,4.04-4.04 V144.7c0-2.14-1.9-4.04-4.04-4.04h-45.12c-2.14,0-4.04,1.66-4.04,4.04v40.37C231.32,187.21,233.22,189.11,235.36,189.11 M235.36,131.17h45.12c2.14,0,4.04-1.66,4.04-4.04V86.76c0-2.14-1.9-4.04-4.04-4.04h-45.12c-2.14,0-4.04,1.66-4.04,4.04v40.37 C231.32,129.27,233.22,131.17,235.36,131.17 M298.28,246.81h45.12c2.14,0,4.04-1.66,4.04-4.04v-40.37c0-2.14-1.66-4.04-4.04-4.04 h-45.12c-2.14,0-4.04,1.66-4.04,4.04v40.37C294.48,245.15,296.15,246.81,298.28,246.81"></path> </g> <g id="kubernetes"> <path class="st35" d="M163.47,497.34c-11.92,0-23.17-5.3-30.79-14.9L16.81,338.43c-7.61-9.6-10.59-21.85-7.61-33.77L50.58,124.9 c2.65-11.92,10.59-21.52,21.52-26.82l167.51-80.12c5.3-2.65,11.26-3.97,17.22-3.97s11.92,1.32,17.21,3.97l167.52,79.78 c10.92,5.3,18.87,14.9,21.52,26.82l41.38,179.76c2.65,11.92,0,24.17-7.61,33.77L380.98,482.11c-7.61,9.27-18.87,14.9-30.79,14.9 L163.47,497.34L163.47,497.34z"></path> <path class="st36" d="M256.5,22.27c4.64,0,9.27,0.99,13.57,2.98l167.52,79.78c8.61,4.3,15.23,12.25,17.21,21.52l41.38,179.76 c2.32,9.6,0,19.53-6.29,27.15L374.02,477.48c-5.96,7.61-15.23,11.92-24.83,11.92H163.47c-9.6,0-18.87-4.3-24.83-11.92 L22.77,333.47c-5.96-7.61-8.28-17.54-6.29-27.15l41.38-179.76c2.32-9.6,8.61-17.55,17.21-21.52l167.52-80.11 C246.9,23.27,251.86,22.28,256.5,22.27L256.5,22.27z M256.5,6.71c-6.95,0-13.9,1.66-20.53,4.63L68.46,91.47 c-13.24,6.29-22.51,17.88-25.82,32.11L1.25,303.34c-3.31,14.24,0,28.8,9.27,40.39l115.87,144.01 c8.94,11.26,22.51,17.54,36.75,17.54h185.72c14.24,0,27.81-6.29,36.75-17.54l115.87-144.01c9.27-11.25,12.58-26.15,9.27-40.39 l-41.38-179.76c-3.31-14.24-12.58-25.82-25.82-32.11L276.69,11.35C270.4,8.37,263.45,6.71,256.5,6.71z"></path> <path class="st36" d="M424.34,292.09C424.01,292.09,424.01,292.09,424.34,292.09h-0.33c-0.33,0-0.66,0-0.66-0.33 c-0.66,0-1.32-0.33-1.99-0.33c-2.32-0.33-4.3-0.66-6.29-0.66c-0.99,0-1.99,0-3.31-0.33h-0.33c-6.95-0.66-12.58-1.32-17.88-2.98 c-2.32-0.99-2.98-2.32-3.64-3.64c0-0.33-0.33-0.33-0.33-0.66l-4.3-1.32c2.03-15.57,1.25-31.39-2.32-46.68 c-3.61-15.42-9.89-30.1-18.54-43.37l3.31-2.98v-0.66c0-1.66,0.33-3.31,1.65-4.97c3.97-3.64,8.94-6.62,14.9-10.26 c0.99-0.66,1.98-0.99,2.98-1.66c1.99-0.99,3.64-1.98,5.63-3.31c0.33-0.33,0.99-0.66,1.66-1.32c0.33-0.33,0.66-0.33,0.66-0.66 c4.63-3.97,5.63-10.59,2.32-14.9c-1.66-2.32-4.63-3.64-7.61-3.64c-2.65,0-4.97,0.99-7.28,2.65l-0.66,0.66 c-0.66,0.33-0.99,0.99-1.66,1.32c-1.66,1.66-2.98,2.98-4.3,4.63c-0.66,0.66-1.32,1.66-2.32,2.32c-4.64,4.97-8.94,8.94-13.24,11.92 c-0.99,0.66-1.98,0.99-2.98,0.99c-0.66,0-1.32,0-1.99-0.33h-0.66l-3.97,2.65c-4.3-4.63-8.94-8.61-13.57-12.58 c-19.96-15.6-43.97-25.14-69.19-27.48l-0.33-4.3l-0.66-0.66c-0.99-0.99-2.32-1.99-2.65-4.3c-0.33-5.3,0.33-11.26,0.99-17.88v-0.33 c0-0.99,0.33-2.32,0.66-3.31c0.33-1.98,0.66-3.97,0.99-6.29v-2.98c0-5.96-4.64-10.92-10.26-10.92c-2.65,0-5.3,1.32-7.28,3.31 c-1.98,1.99-2.98,4.63-2.98,7.61v2.65c0,2.32,0.33,4.3,0.99,6.29c0.33,0.99,0.33,1.99,0.66,3.31v0.33 c0.66,6.62,1.66,12.58,0.99,17.88c-0.33,2.32-1.66,3.31-2.65,4.3l-0.66,0.66l-0.33,4.3c-5.96,0.66-11.92,1.32-17.88,2.65 c-25.49,5.63-48,18.54-65.55,37.08l-3.31-2.32h-0.66c-0.66,0-1.32,0.33-1.99,0.33c-0.99,0-1.99-0.33-2.98-0.99 c-4.3-2.98-8.61-7.28-13.24-12.25c-0.66-0.66-1.32-1.66-2.32-2.32c-1.32-1.66-2.65-2.98-4.31-4.63c-0.33-0.33-0.99-0.66-1.65-1.32 c-0.33-0.33-0.66-0.33-0.66-0.66c-2.05-1.69-4.62-2.63-7.28-2.65c-2.98,0-5.96,1.32-7.61,3.64c-3.31,4.3-2.32,10.92,2.32,14.9 c0.33,0,0.33,0.33,0.66,0.33c0.66,0.33,0.99,0.99,1.66,1.32c1.99,1.32,3.64,2.32,5.63,3.31c0.99,0.33,1.99,0.99,2.98,1.66 c5.96,3.64,10.92,6.62,14.9,10.26c1.66,1.65,1.66,3.31,1.66,4.97v0.66l3.31,2.98c-0.66,0.99-1.32,1.66-1.66,2.65 c-16.55,26.15-22.84,56.94-18.54,87.4l-4.3,1.32c0,0.33-0.33,0.33-0.33,0.66c-0.66,1.32-1.66,2.65-3.64,3.64 c-4.97,1.66-10.92,2.32-17.88,2.98h-0.33c-0.99,0-2.32,0-3.31,0.33c-1.99,0-3.97,0.33-6.29,0.66c-0.66,0-1.32,0.33-1.99,0.33 c-0.33,0-0.66,0-0.99,0.33c-5.96,1.32-9.6,6.95-8.61,12.25c0.99,4.64,5.3,7.62,10.59,7.62c0.99,0,1.66,0,2.65-0.33 c0.33,0,0.66,0,0.66-0.33c0.66,0,1.32-0.33,1.98-0.33c2.32-0.66,3.97-1.32,5.96-2.32c0.99-0.33,1.98-0.99,2.98-1.32h0.33 c6.29-2.32,11.92-4.31,17.22-4.97h0.66c1.99,0,3.31,0.99,4.3,1.66c0.33,0,0.33,0.33,0.66,0.33l4.64-0.66 c7.95,24.5,23.17,46.35,43.37,62.24c4.63,3.64,9.27,6.62,14.24,9.6l-1.99,4.3c0,0.33,0.33,0.33,0.33,0.66 c0.66,1.32,1.32,2.98,0.66,5.3c-1.98,4.97-4.97,9.93-8.61,15.56v0.33c-0.66,0.99-1.32,1.66-1.98,2.65 c-1.32,1.66-2.32,3.31-3.64,5.3c-0.33,0.33-0.66,0.99-0.99,1.66c0,0.33-0.33,0.66-0.33,0.66c-2.65,5.63-0.66,11.92,4.3,14.24 c1.32,0.66,2.65,0.99,3.97,0.99c3.97,0,7.95-2.65,9.93-6.29c0-0.33,0.33-0.66,0.33-0.66c0.33-0.66,0.66-1.32,0.99-1.66 c0.99-2.32,1.32-3.97,1.99-5.96l0.99-2.98c2.32-6.62,3.97-11.92,6.95-16.55c1.32-1.99,2.98-2.32,4.3-2.98c0.33,0,0.33,0,0.66-0.33 l2.32-4.3c14.57,5.63,30.46,8.61,46.35,8.61c9.6,0,19.53-0.99,28.8-3.31c5.83-1.3,11.58-2.96,17.21-4.97l1.98,3.64 c0.33,0,0.33,0,0.66,0.33c1.66,0.33,2.98,0.99,4.3,2.98c2.65,4.63,4.63,10.26,6.95,16.55v0.33l0.99,2.98 c0.66,1.99,0.99,3.97,1.98,5.96c0.33,0.66,0.66,0.99,0.99,1.66c0,0.33,0.33,0.66,0.33,0.66c1.98,3.97,5.96,6.29,9.93,6.29 c1.32,0,2.65-0.33,3.97-0.99c2.32-1.32,4.3-3.31,4.97-5.96c0.66-2.65,0.66-5.63-0.66-8.28c0-0.33-0.33-0.33-0.33-0.66 c-0.33-0.66-0.66-1.32-0.99-1.66c-0.99-1.99-2.32-3.64-3.64-5.3c-0.66-0.99-1.32-1.65-1.98-2.65v-0.33 c-3.64-5.63-6.96-10.59-8.61-15.56c-0.66-2.32,0-3.64,0.33-5.3c0-0.33,0.33-0.33,0.33-0.66l-1.66-3.97 c17.55-10.26,32.44-24.83,43.7-42.71c5.96-9.27,10.59-19.53,13.9-29.8l3.97,0.66c0.33,0,0.33-0.33,0.66-0.33 c1.32-0.66,2.32-1.65,4.31-1.65h0.66c5.3,0.66,10.92,2.65,17.22,4.96h0.33c0.99,0.33,1.98,0.99,2.98,1.32 c1.99,0.99,3.64,1.66,5.96,2.32c0.66,0,1.32,0.33,1.99,0.33c0.33,0,0.66,0,0.99,0.33c0.99,0.33,1.66,0.33,2.65,0.33 c4.97,0,9.27-3.31,10.59-7.61C433.94,299.04,430.3,293.74,424.34,292.09L424.34,292.09z M271.06,275.86l-14.57,6.95l-14.57-6.95 l-3.64-15.56l9.93-12.58h16.22l9.93,12.58L271.06,275.86L271.06,275.86z M357.47,241.43c2.57,10.95,3.35,22.24,2.32,33.43 l-50.65-14.56c-4.63-1.32-7.28-5.96-6.29-10.59c0.33-1.32,0.99-2.65,1.99-3.64l40.06-36.09 C350.52,219.25,354.82,229.85,357.47,241.43L357.47,241.43z M329,190.12l-43.37,30.79c-3.64,2.32-8.61,1.65-11.59-1.99 c-0.99-0.99-1.32-2.32-1.66-3.64l-2.98-53.96C291.95,163.91,312.96,174.07,329,190.12L329,190.12z M232.99,162.97 c3.64-0.66,6.95-1.32,10.59-1.98l-2.98,52.97c-0.33,4.63-3.97,8.61-8.94,8.61c-1.32,0-2.98-0.33-3.97-0.99l-44.03-31.45 C197.24,176.55,214.12,167.28,232.99,162.97L232.99,162.97z M167.77,209.98l39.4,35.09c3.64,2.98,3.97,8.61,0.99,12.25 c-0.99,1.32-2.32,2.32-3.97,2.65l-51.31,14.9C150.89,252.36,155.85,229.51,167.77,209.98L167.77,209.98z M158.83,299.7l52.64-8.94 c4.3-0.33,8.28,2.65,9.27,6.95c0.33,1.98,0.33,3.64-0.33,5.3l-20.19,48.66C181.68,339.75,166.78,321.55,158.83,299.7L158.83,299.7 z M279.67,365.58c-7.61,1.66-15.23,2.65-23.18,2.65c-11.59,0-22.84-1.98-33.43-5.3l26.15-47.34c2.65-2.98,6.95-4.3,10.59-2.32 c1.55,0.95,2.89,2.18,3.97,3.64l25.49,46.02C286.29,363.92,282.98,364.59,279.67,365.58L279.67,365.58z M344.23,319.56 c-8.28,13.24-19.2,23.83-31.78,32.11l-20.86-49.99c-0.99-3.97,0.66-8.27,4.63-10.26c1.32-0.66,2.98-0.99,4.63-0.99l52.97,8.94 C351.84,306.65,348.53,313.27,344.23,319.56L344.23,319.56z"></path> </g> <g id="cloud"> <path class="st37" d="M406,448H124c-2.69,0-5.34-0.19-7.93-0.56C51,441.32,0,385.66,0,318c0-37.84,15.95-71.92,41.39-95.69L34,230 c41.75-40.9,92.15-51.82,152-30c-22.73-15.2-47.49-28.89-99.79-22.29C86.07,175.48,86,173.24,86,171c0-59.05,49.29-107,110-107 c44.1,0,82.17,25.3,99.7,61.77c11.41-5.13,23.78-7.78,36.3-7.77c50.78,0,92,43.02,92,96c0,4.3-0.27,8.54-0.8,12.7 c4.18,1.35,8.18,3.19,11.93,5.48C479.49,245.21,512,287.23,512,337c0,52.65-36.38,96.63-84.67,106.79 C420.56,446.58,413.32,448.01,406,448z"></path> </g> <g id="ci_x2F_cd"> <linearGradient id="SVGID_00000121961969910417087040000011915942570237062550_" gradientUnits="userSpaceOnUse" x1="1573.0951" y1="-686.1287" x2="1617.6385" y2="-686.1287" gradientTransform="matrix(0 -4.9223 -4.9223 0 -2943.2285 8108.8203)"> <stop offset="0" style="stop-color:#9D3ADF"></stop> <stop offset="0.206" style="stop-color:#8542D8"></stop> <stop offset="0.638" style="stop-color:#4857C6"></stop> <stop offset="1" style="stop-color:#106AB6"></stop> </linearGradient> <path style="display:inline;fill:url(#SVGID_00000121961969910417087040000011915942570237062550_);" d="M359.4,198.89 c-0.92,0.47-1.82,0.98-2.73,1.53c18.45-31.4,50.85-51.49,87.22-53.9l2.38-0.16c10.8,5.76,20.8,13.19,29.68,22.13 c23.48,23.65,36.28,55.03,36.05,88.37c-0.33,47.05-27.07,87.99-66.03,108.75l-2.36-0.17c-36.67-2.53-69.16-22.93-87.45-54.75 c3.3,2.02,6.74,3.69,10.24,4.95c6.79,2.45,13.95,3.69,21.28,3.71h0.17c34.71,0,63.13-28.19,63.38-62.92 c0.12-17.02-6.42-33.05-18.41-45.12c-11.99-12.08-27.96-18.73-44.98-18.73C376.9,192.6,367.59,194.66,359.4,198.89L359.4,198.89z"></path> <linearGradient id="SVGID_00000126285782856941448700000013714353538620247995_" gradientUnits="userSpaceOnUse" x1="1573.087" y1="-613.9067" x2="1617.6461" y2="-613.9067" gradientTransform="matrix(0 -4.9223 -4.9223 0 -2943.2285 8108.8203)"> <stop offset="0" style="stop-color:#9D3ADF"></stop> <stop offset="0.206" style="stop-color:#8542D8"></stop> <stop offset="0.638" style="stop-color:#4857C6"></stop> <stop offset="1" style="stop-color:#106AB6"></stop> </linearGradient> <path style="display:inline;fill:url(#SVGID_00000126285782856941448700000013714353538620247995_);" d="M0,256.91 c-0.23-33.34,12.57-64.72,36.05-88.37c8.91-8.98,18.96-16.42,29.81-22.2l2.41,0.14c37.15,2.24,70.01,22.68,88.48,54.88 c-1.34-0.88-2.73-1.69-4.15-2.43c-8.19-4.23-17.5-6.29-28.45-6.29c-17.01,0-32.99,6.65-44.98,18.72 c-11.99,12.08-18.53,28.1-18.41,45.12c0.25,34.73,28.66,62.92,63.38,62.92h0.17c7.32-0.02,14.48-1.27,21.28-3.71 c3.97-1.43,7.86-3.38,11.57-5.79c-18.16,32.12-51.9,53.34-88.73,55.61l-2.41,0.15C27.07,344.9,0.34,303.97,0,256.91L0,256.91z"></path> <linearGradient id="SVGID_00000060751916526215108550000015016024862015181206_" gradientUnits="userSpaceOnUse" x1="1595.5774" y1="-669.1326" x2="1620.5931" y2="-669.1326" gradientTransform="matrix(0 -4.9223 -4.9223 0 -2943.2285 8108.8203)"> <stop offset="0" style="stop-color:#00FF10"></stop> <stop offset="0" style="stop-color:#00C9FF"></stop> <stop offset="1" style="stop-color:#1E1CB0"></stop> </linearGradient> <path style="display:inline;fill:url(#SVGID_00000060751916526215108550000015016024862015181206_);" d="M300.04,254.96 l-42.99-42.99l18.53-18.53l11.86-11.87l0.03,0.03l16.06-16.05c8.47-8.48,17.89-15.42,27.97-20.63 c16.8-8.68,35.76-13.08,56.35-13.08c19.77,0,38.82,4.58,55.95,13.25c-38.69,2.57-71.99,24.95-89.8,57.1 c-2.59,1.81-5.1,3.93-7.5,6.33l-28.42,28.42L300.04,254.96z"></path> <linearGradient id="SVGID_00000152232472103562884690000017350927579352321210_" gradientUnits="userSpaceOnUse" x1="1570.1396" y1="-630.8046" x2="1595.1566" y2="-630.8046" gradientTransform="matrix(0 -4.9223 -4.9223 0 -2943.2285 8108.8203)"> <stop offset="0" style="stop-color:#00FF10"></stop> <stop offset="0" style="stop-color:#00C9FF"></stop> <stop offset="1" style="stop-color:#1E1CB0"></stop> </linearGradient> <path style="display:inline;fill:url(#SVGID_00000152232472103562884690000017350927579352321210_);" d="M68.52,366.96 c39.64-2.44,73.66-25.65,91.31-58.89c2.71-1.97,5.26-4.15,7.63-6.52l20.85-20.85l23.66-23.66L255,300.01l-24.92,24.87 l-19.66,19.65c-12.71,12.71-28.01,22.51-44.26,28.36c-13.36,4.8-27.38,7.26-41.68,7.29h-0.33 C104.18,380.17,85.28,375.41,68.52,366.96L68.52,366.96z"></path> <linearGradient id="SVGID_00000173853933887935669970000008964819989803892879_" gradientUnits="userSpaceOnUse" x1="1570.1473" y1="-649.9377" x2="1620.5858" y2="-649.9377" gradientTransform="matrix(0 -4.9223 -4.9223 0 -2943.2285 8108.8203)"> <stop offset="0" style="stop-color:#00FF10"></stop> <stop offset="0" style="stop-color:#00C9FF"></stop> <stop offset="1" style="stop-color:#1E1CB0"></stop> </linearGradient> <path style="display:inline;fill:url(#SVGID_00000173853933887935669970000008964819989803892879_);" d="M68.36,145.03 c1.92-0.96,3.85-1.88,5.82-2.74h0.01c1.12-0.49,2.25-0.97,3.38-1.43c14.6-5.9,30.36-9,46.6-9c20.6,0,39.56,4.4,56.35,13.08 c10.08,5.21,19.49,12.15,27.97,20.63l16.01,16.02l0.07-0.06l119.99,119.99c2.76,2.78,5.78,5.29,9.01,7.51 c16.96,31.22,48.45,53.39,85.4,57.47c0.58,0.07,1.16,0.13,1.75,0.18c0.93,0.08,1.87,0.17,2.81,0.23 c-1.89,0.96-3.81,1.86-5.76,2.72c-1.34,0.6-2.69,1.17-4.06,1.71c-14.29,5.71-29.88,8.85-46.18,8.8 c-14.3-0.04-28.32-2.49-41.68-7.29c-16.25-5.85-31.55-15.65-44.27-28.36l-19.62-19.61l-0.01,0.01l-84.35-84.24l-32.09-32.09 c-1.88-1.88-3.89-3.63-6.01-5.24l-0.01-0.01c-17-31.53-48.79-53.91-86.09-57.85C71.72,145.27,70.04,145.13,68.36,145.03 L68.36,145.03z"></path> <linearGradient id="SVGID_00000044158636309559802040000016886262997239459774_" gradientUnits="userSpaceOnUse" x1="1573.0951" y1="-686.1287" x2="1617.6385" y2="-686.1287" gradientTransform="matrix(0 -4.9223 -4.9223 0 -2943.2285 8108.8203)"> <stop offset="0" style="stop-color:#9D3ADF"></stop> <stop offset="0.206" style="stop-color:#8542D8"></stop> <stop offset="0.638" style="stop-color:#4857C6"></stop> <stop offset="1" style="stop-color:#106AB6"></stop> </linearGradient> <path style="display:inline;fill:url(#SVGID_00000044158636309559802040000016886262997239459774_);" d="M359.4,198.89 c-0.92,0.47-1.82,0.98-2.73,1.53c18.45-31.4,50.85-51.49,87.22-53.9l2.38-0.16c10.8,5.76,20.8,13.19,29.68,22.13 c23.48,23.65,36.28,55.03,36.05,88.37c-0.33,47.05-27.07,87.99-66.03,108.75l-2.36-0.17c-36.67-2.53-69.16-22.93-87.45-54.75 c3.3,2.02,6.74,3.69,10.24,4.95c6.79,2.45,13.95,3.69,21.28,3.71h0.17c34.71,0,63.13-28.19,63.38-62.92 c0.12-17.02-6.42-33.05-18.41-45.12c-11.99-12.08-27.96-18.73-44.98-18.73C376.9,192.6,367.59,194.66,359.4,198.89L359.4,198.89z"></path> <linearGradient id="SVGID_00000075120766258247987420000004940938739312526470_" gradientUnits="userSpaceOnUse" x1="1573.087" y1="-613.9067" x2="1617.6461" y2="-613.9067" gradientTransform="matrix(0 -4.9223 -4.9223 0 -2943.2285 8108.8203)"> <stop offset="0" style="stop-color:#9D3ADF"></stop> <stop offset="0.206" style="stop-color:#8542D8"></stop> <stop offset="0.638" style="stop-color:#4857C6"></stop> <stop offset="1" style="stop-color:#106AB6"></stop> </linearGradient> <path style="display:inline;fill:url(#SVGID_00000075120766258247987420000004940938739312526470_);" d="M0,256.91 c-0.23-33.34,12.57-64.72,36.05-88.37c8.91-8.98,18.96-16.42,29.81-22.2l2.41,0.14c37.15,2.24,70.01,22.68,88.48,54.88 c-1.34-0.88-2.73-1.69-4.15-2.43c-8.19-4.23-17.5-6.29-28.45-6.29c-17.01,0-32.99,6.65-44.98,18.72 c-11.99,12.08-18.53,28.1-18.41,45.12c0.25,34.73,28.66,62.92,63.38,62.92h0.17c7.32-0.02,14.48-1.27,21.28-3.71 c3.97-1.43,7.86-3.38,11.57-5.79c-18.16,32.12-51.9,53.34-88.73,55.61l-2.41,0.15C27.07,344.9,0.34,303.97,0,256.91L0,256.91z"></path> <linearGradient id="SVGID_00000078731473642626934030000000779269251656413062_" gradientUnits="userSpaceOnUse" x1="1595.5774" y1="-669.1326" x2="1620.5931" y2="-669.1326" gradientTransform="matrix(0 -4.9223 -4.9223 0 -2943.2285 8108.8203)"> <stop offset="0" style="stop-color:#00FF10"></stop> <stop offset="0" style="stop-color:#00C9FF"></stop> <stop offset="1" style="stop-color:#1E1CB0"></stop> </linearGradient> <path style="display:inline;fill:url(#SVGID_00000078731473642626934030000000779269251656413062_);" d="M300.04,254.96 l-42.99-42.99l18.53-18.53l11.86-11.87l0.03,0.03l16.06-16.05c8.47-8.48,17.89-15.42,27.97-20.63 c16.8-8.68,35.76-13.08,56.35-13.08c19.77,0,38.82,4.58,55.95,13.25c-38.69,2.57-71.99,24.95-89.8,57.1 c-2.59,1.81-5.1,3.93-7.5,6.33l-28.42,28.42L300.04,254.96z"></path> <linearGradient id="SVGID_00000054266338239155623420000003680655954420703630_" gradientUnits="userSpaceOnUse" x1="1570.1396" y1="-630.8046" x2="1595.1566" y2="-630.8046" gradientTransform="matrix(0 -4.9223 -4.9223 0 -2943.2285 8108.8203)"> <stop offset="0" style="stop-color:#00FF10"></stop> <stop offset="0" style="stop-color:#00C9FF"></stop> <stop offset="1" style="stop-color:#1E1CB0"></stop> </linearGradient> <path style="display:inline;fill:url(#SVGID_00000054266338239155623420000003680655954420703630_);" d="M68.52,366.96 c39.64-2.44,73.66-25.65,91.31-58.89c2.71-1.97,5.26-4.15,7.63-6.52l20.85-20.85l23.66-23.66L255,300.01l-24.92,24.87 l-19.66,19.65c-12.71,12.71-28.01,22.51-44.26,28.36c-13.36,4.8-27.38,7.26-41.68,7.29h-0.33 C104.18,380.17,85.28,375.41,68.52,366.96L68.52,366.96z"></path> <linearGradient id="SVGID_00000071559963483269834960000007926671259541952909_" gradientUnits="userSpaceOnUse" x1="1570.1473" y1="-649.9377" x2="1620.5858" y2="-649.9377" gradientTransform="matrix(0 -4.9223 -4.9223 0 -2943.2285 8108.8203)"> <stop offset="0" style="stop-color:#00FF10"></stop> <stop offset="0" style="stop-color:#00C9FF"></stop> <stop offset="1" style="stop-color:#1E1CB0"></stop> </linearGradient> <path style="display:inline;fill:url(#SVGID_00000071559963483269834960000007926671259541952909_);" d="M68.36,145.03 c1.92-0.96,3.85-1.88,5.82-2.74h0.01c1.12-0.49,2.25-0.97,3.38-1.43c14.6-5.9,30.36-9,46.6-9c20.6,0,39.56,4.4,56.35,13.08 c10.08,5.21,19.49,12.15,27.97,20.63l16.01,16.02l0.07-0.06l119.99,119.99c2.76,2.78,5.78,5.29,9.01,7.51 c16.96,31.22,48.45,53.39,85.4,57.47c0.58,0.07,1.16,0.13,1.75,0.18c0.93,0.08,1.87,0.17,2.81,0.23 c-1.89,0.96-3.81,1.86-5.76,2.72c-1.34,0.6-2.69,1.17-4.06,1.71c-14.29,5.71-29.88,8.85-46.18,8.8 c-14.3-0.04-28.32-2.49-41.68-7.29c-16.25-5.85-31.55-15.65-44.27-28.36l-19.62-19.61l-0.01,0.01l-84.35-84.24l-32.09-32.09 c-1.88-1.88-3.89-3.63-6.01-5.24l-0.01-0.01c-17-31.53-48.79-53.91-86.09-57.85C71.72,145.27,70.04,145.13,68.36,145.03 L68.36,145.03z"></path> </g> <g id="aws"> <path class="st48" d="M144.29,214.11c0,6.3,0.68,11.41,1.87,15.16c1.36,3.75,3.07,7.83,5.45,12.26c0.85,1.36,1.19,2.72,1.19,3.92 c0,1.7-1.02,3.41-3.24,5.11l-10.73,7.15c-1.53,1.02-3.07,1.53-4.43,1.53c-1.7,0-3.41-0.85-5.11-2.38c-2.38-2.55-4.43-5.28-6.13-8 c-1.7-2.89-3.41-6.13-5.28-10.05c-13.28,15.67-29.97,23.5-50.06,23.5c-14.3,0-25.71-4.09-34.06-12.26 c-8.34-8.17-12.6-19.07-12.6-32.69c0-14.47,5.11-26.22,15.5-35.08s24.18-13.28,41.72-13.28c5.79,0,11.75,0.51,18.05,1.36 c6.3,0.85,12.77,2.21,19.58,3.75v-12.43c0-12.94-2.72-21.97-8-27.25c-5.45-5.28-14.64-7.83-27.76-7.83 c-5.96,0-12.09,0.68-18.39,2.21c-6.3,1.53-12.43,3.41-18.39,5.79c-2.72,1.19-4.77,1.87-5.96,2.21c-1.19,0.34-2.04,0.51-2.72,0.51 c-2.38,0-3.58-1.7-3.58-5.28v-8.34c0-2.72,0.34-4.77,1.19-5.96s2.38-2.38,4.77-3.58c5.96-3.07,13.11-5.62,21.46-7.66 c8.34-2.21,17.2-3.24,26.56-3.24c20.26,0,35.08,4.6,44.61,13.79c9.37,9.2,14.13,23.16,14.13,41.89v55.17L144.29,214.11z M75.15,239.99c5.62,0,11.41-1.02,17.54-3.07s11.58-5.79,16.18-10.9c2.72-3.24,4.77-6.81,5.79-10.9s1.7-9.03,1.7-14.81v-7.15 c-4.94-1.19-10.22-2.21-15.67-2.89c-5.45-0.68-10.73-1.02-16.01-1.02c-11.41,0-19.75,2.21-25.37,6.81s-8.34,11.07-8.34,19.58 c0,8,2.04,13.96,6.3,18.05C61.36,237.95,67.32,239.99,75.15,239.99L75.15,239.99z M211.89,258.38c-3.07,0-5.11-0.51-6.47-1.7 c-1.36-1.02-2.55-3.41-3.58-6.64l-40.02-131.63c-1.02-3.41-1.53-5.62-1.53-6.81c0-2.72,1.36-4.26,4.09-4.26h16.69 c3.24,0,5.45,0.51,6.64,1.7c1.36,1.02,2.38,3.41,3.41,6.64l28.61,112.73l26.56-112.73c0.85-3.41,1.87-5.62,3.24-6.64 c1.36-1.02,3.75-1.7,6.81-1.7h13.62c3.24,0,5.45,0.51,6.81,1.7c1.36,1.02,2.55,3.41,3.24,6.64l26.91,114.09l29.46-114.09 c1.02-3.41,2.21-5.62,3.41-6.64c1.36-1.02,3.58-1.7,6.64-1.7h15.84c2.72,0,4.26,1.36,4.26,4.26c0,0.85-0.17,1.7-0.34,2.72 c-0.17,1.02-0.51,2.38-1.19,4.26l-41.04,131.63c-1.02,3.41-2.21,5.62-3.58,6.64c-1.36,1.02-3.58,1.7-6.47,1.7h-14.64 c-3.24,0-5.45-0.51-6.81-1.7c-1.36-1.19-2.55-3.41-3.24-6.81l-26.39-109.83l-26.22,109.66c-0.85,3.41-1.87,5.62-3.24,6.81 c-1.36,1.19-3.75,1.7-6.81,1.7H211.89z M430.71,262.98c-8.85,0-17.71-1.02-26.22-3.07c-8.51-2.04-15.16-4.26-19.58-6.81 c-2.72-1.53-4.6-3.24-5.28-4.77c-0.68-1.53-1.02-3.24-1.02-4.77v-8.68c0-3.58,1.36-5.28,3.92-5.28c1.02,0,2.04,0.17,3.07,0.51 s2.55,1.02,4.26,1.7c5.79,2.55,12.09,4.6,18.73,5.96c6.81,1.36,13.45,2.04,20.26,2.04c10.73,0,19.07-1.87,24.86-5.62 s8.85-9.2,8.85-16.18c0-4.77-1.53-8.68-4.6-11.92c-3.07-3.24-8.85-6.13-17.2-8.85l-24.69-7.66c-12.43-3.92-21.63-9.71-27.25-17.37 c-5.62-7.49-8.51-15.84-8.51-24.69c0-7.15,1.53-13.45,4.6-18.9s7.15-10.22,12.26-13.96c5.11-3.92,10.9-6.81,17.71-8.85 c6.81-2.04,13.96-2.89,21.46-2.89c3.75,0,7.66,0.17,11.41,0.68c3.92,0.51,7.49,1.19,11.07,1.87c3.41,0.85,6.64,1.7,9.71,2.72 c3.07,1.02,5.45,2.04,7.15,3.07c2.38,1.36,4.09,2.72,5.11,4.26c1.02,1.36,1.53,3.24,1.53,5.62v8c0,3.58-1.36,5.45-3.92,5.45 c-1.36,0-3.58-0.68-6.47-2.04c-9.71-4.43-20.6-6.64-32.69-6.64c-9.71,0-17.37,1.53-22.65,4.77c-5.28,3.24-8,8.17-8,15.16 c0,4.77,1.7,8.85,5.11,12.09c3.41,3.24,9.71,6.47,18.73,9.37l24.18,7.66c12.26,3.92,21.12,9.37,26.39,16.35s7.83,14.99,7.83,23.84 c0,7.32-1.53,13.96-4.43,19.75c-3.07,5.79-7.15,10.9-12.43,14.99c-5.28,4.26-11.58,7.32-18.9,9.54 C447.4,261.79,439.39,262.98,430.71,262.98L430.71,262.98z"></path> <g class="st49"> <path class="st50" d="M462.89,345.74c-56.02,41.38-137.42,63.35-207.41,63.35c-98.08,0-186.46-36.27-253.21-96.55 c-5.28-4.77-0.51-11.24,5.79-7.49c72.2,41.89,161.26,67.26,253.39,67.26c62.15,0,130.44-12.94,193.27-39.51 C464.08,328.54,472.09,338.93,462.89,345.74z"></path> <path class="st50" d="M486.22,319.18c-7.15-9.2-47.34-4.43-65.56-2.21c-5.45,0.68-6.3-4.09-1.36-7.66 c32.01-22.48,84.63-16.01,90.76-8.51c6.13,7.66-1.7,60.28-31.67,85.48c-4.6,3.92-9.03,1.87-6.98-3.24 C478.22,366.17,493.37,328.2,486.22,319.18z"></path> </g> </g> <g id="helm"> <path class="st51" d="M139.11,121.88l-1.4-1.33c-0.16-0.15-0.32-0.31-0.48-0.46c-13.11-12.6-23.26-27.16-29.39-44.38 c-1.64-4.62-2.9-9.32-2.8-14.28l0.02-0.65c0.02-0.49,0.02-0.99,0.05-1.48c0.46-6.7,4.95-10.08,11.49-8.5 c2.07,0.53,4.06,1.3,5.96,2.28c6.92,3.47,12.61,8.55,17.83,14.14l0.54,0.58c9.53,10.15,17.18,21.91,22.58,34.74 c0.12,0.31,0.25,0.6,0.4,0.89c0.02,0.04,0.06,0.08,0.11,0.13l0.37,0.31c0.03,0.03,0.07,0.06,0.11,0.1 c25.55-15.33,54.45-24.2,84.2-25.84l-0.07-0.38l0,0l-0.19-1.01c-0.04-0.21-0.08-0.41-0.13-0.61l-0.07-0.29 c-3.04-12.56-3.97-25.54-2.76-38.41c0.53-7.71,2.09-15.32,4.62-22.62c1.23-3.85,3.16-7.43,5.69-10.57 c0.96-1.12,2.06-2.11,3.29-2.93c2.5-1.77,5.83-1.79,8.35-0.06c2.6,1.76,4.69,4.17,6.07,7c2.56,4.79,4.41,9.93,5.47,15.25 c2.42,11.26,3.16,22.82,2.21,34.3c-0.47,7.01-1.69,13.94-3.63,20.69c1.23,0.23,2.47,0.45,3.7,0.66l5.53,0.95 c4.29,0.74,8.55,1.52,12.75,2.52c7.19,1.67,14.29,3.76,21.24,6.24c7.01,2.57,13.87,5.55,20.55,8.91 c3.85,1.92,7.59,4.05,11.34,6.24l3.22,1.88c1.62,0.95,3.24,1.89,4.89,2.83l0.14-0.28l0,0l0.31-0.61c0.1-0.21,0.2-0.44,0.29-0.67 c6.85-18.96,18.66-35.74,34.19-48.6c3.63-3.11,7.79-5.54,12.29-7.15c1.24-0.43,2.52-0.73,3.82-0.88c6.51-0.75,9.24,3.35,9.72,8.24 c0.36,3.61,0.09,7.25-0.8,10.76c-2.29,8.75-5.87,17.11-10.62,24.81l-0.53,0.85c-6.88,11.12-15.02,21.16-25.29,29.34l-0.79,0.63 c-0.07,0.05-0.14,0.11-0.21,0.17l-0.33,0.31l0,0l-0.42,0.39c-0.05,0.05-0.11,0.1-0.17,0.16c10.41,9.6,19.69,20.37,27.64,32.1 c-0.58,0.15-1.16,0.25-1.76,0.31c-11.01,0.02-22.02-0.02-33.04,0.05c-1.31-0.03-2.54-0.68-3.3-1.76 c-24.03-26.25-56.42-43.35-91.64-48.38c-9.98-1.45-20.09-1.89-30.16-1.3l-1.31,0.08c-31,1.89-60.66,13.22-85.02,32.46l-0.76,0.6 c-6.33,4.99-12.23,10.5-17.64,16.46c-0.97,1.21-2.46,1.89-4.02,1.83c-6.31-0.04-12.62-0.05-18.93-0.04l-14.86,0.01 c0.05-0.19,0.13-0.42,0.25-0.69l0.15-0.33c0.06-0.12,0.12-0.24,0.18-0.37l0.21-0.4l0,0l0.24-0.42l0,0l0.27-0.45l0,0l0.3-0.48l0,0 l0.32-0.5l0,0l0.53-0.8l0,0l0.58-0.85l0,0l0.42-0.59l0,0l0.66-0.92c0.08-0.1,0.15-0.21,0.23-0.32l0.72-0.97l0,0l0.51-0.67l0,0 l0.52-0.68l0,0l0.81-1.04l0,0l0.85-1.07l0,0l0.58-0.72l0,0l0.6-0.73l0,0l0.61-0.73l0,0l0.62-0.74l0,0l0.63-0.74l0,0l0.96-1.11l0,0 l0.65-0.74l0,0l0.66-0.74l0,0l0.67-0.74l0,0l0.67-0.73l0,0c3.28-3.54,6.67-6.97,10.13-10.45l3.48-3.49 C136.76,124.25,137.93,123.07,139.11,121.88z M407.25,357.57c-7.32,10.24-15.66,19.7-24.92,28.23l1.94,1.61l0,0 c16.06,13.14,28.17,30.45,35.01,50.04c1.82,4.78,2.6,9.89,2.29,14.99c-0.08,1.14-0.29,2.27-0.63,3.37l-0.15,0.47 c-1.09,3.64-4.74,5.88-8.48,5.22c-2.44-0.32-4.81-1.02-7.03-2.09c-3.39-1.67-6.58-3.7-9.54-6.04 c-15.34-12.6-27.04-29.06-33.91-47.67l-0.45-1.23l0,0l-0.62-1.59l0,0c-8.3,5.49-16.98,10.35-26,14.56 c-8.97,4.09-18.24,7.47-27.74,10.11c-9.65,2.62-19.48,4.49-29.42,5.6l0.14,0.71l0,0l0.12,0.64c0.04,0.21,0.08,0.41,0.13,0.6 l0.07,0.29c3.15,12.36,4.19,25.17,3.09,37.88c-0.42,7.97-1.96,15.83-4.6,23.36c-1.25,3.12-2.7,6.15-4.33,9.09 c-0.66,1.14-1.48,2.18-2.43,3.09c-4.14,4.27-9.08,4.31-13.11-0.08c-1.59-1.77-2.96-3.73-4.06-5.84c-3.2-6-4.84-12.53-6.02-19.19 c-1.51-9.09-1.99-18.31-1.41-27.51c0.29-6.34,1.2-12.63,2.71-18.79l0.29-1.15c0.15-0.55,0.28-1.11,0.39-1.67 c0.01-0.06,0-0.13-0.03-0.23l-0.12-0.4c-0.01-0.04-0.02-0.09-0.04-0.14c-29.75-1.68-58.63-10.6-84.15-25.98l-0.97,2.14 c-0.06,0.13-0.12,0.27-0.18,0.4c-7.03,16.39-17.77,30.92-31.38,42.43l-0.73,0.61c-3.7,3.16-7.94,5.61-12.52,7.23 c-2.15,0.86-4.49,1.11-6.77,0.73c-2.47-0.44-4.54-2.11-5.51-4.41l-0.1-0.26c-1.35-3.27-1.24-6.67-0.83-10.05l0.11-0.88l0,0 c0.82-5.12,2.33-10.1,4.48-14.81c6.37-14.85,15.76-28.21,27.55-39.25l0.96-0.9c0.16-0.15,0.32-0.3,0.47-0.45 c0.15-0.21,0.28-0.44,0.38-0.68c-11.12-9.64-21.05-20.57-29.59-32.55l0.33-0.03l0,0l1.12-0.11c0.33-0.03,0.64-0.05,0.94-0.05 c8.74-0.01,17.48,0.01,26.23-0.01l6.56-0.03c1.47-0.04,2.89,0.58,3.85,1.69c11.61,11.94,25.09,21.91,39.92,29.49l1.04,0.53 c16.11,8.29,33.63,13.5,51.66,15.35c48.97,4.76,91.1-10.09,126.38-44.54c1.6-1.73,3.88-2.66,6.23-2.54 c5.09,0.06,10.19,0.08,15.28,0.07l10.19-0.02c1.7,0,3.4,0,5.09,0h2.63L407.25,357.57z"></path> <path class="st51" d="M361.73,201.52c0.64,0,1.28,0.01,1.92,0.02l1.89,0.04c1.25,0.02,2.49,0.03,3.71-0.04l0.92-0.07 c3.11-0.28,5.34,0.83,7.61,2.92c10.92,10.07,21.94,20.03,32.95,30l6.85,6.21l0,0l0.78,0.69l0,0l1.17,1.03l0,0l1.38-1.17 c0.3-0.25,0.59-0.51,0.87-0.77c13.61-12.39,27.2-24.78,40.79-37.19c1.07-1.11,2.55-1.72,4.08-1.72l0.29,0.01 c2.09,0.08,4.19,0.08,6.32,0.06l2.59-0.02c0.44,0,0.87,0,1.32,0v109.51c-0.04,0.01-0.1,0.02-0.17,0.04l-0.24,0.04l0,0l-0.31,0.03 l0,0l-0.38,0.03l0,0l-0.44,0.03l0,0l-0.77,0.04l0,0l-1.55,0.06l0,0l-1.83,0.05l0,0l-2.05,0.04l0,0l-3.14,0.04l0,0l-2.83,0.02l0,0 l-2.86,0l0,0l-1.87-0.01l0,0l-2.25-0.02l0,0l-1.69-0.03l0,0l-1.19-0.03l0,0l-1.1-0.03l0,0l-1.32-0.05l0,0l-0.86-0.04l0,0 l-0.73-0.05l0,0l-0.41-0.03l0,0l-0.35-0.04c-0.05-0.01-0.1-0.01-0.15-0.02l-0.24-0.04l0,0v-55.46l-0.56-0.26l-28.31,25.82l0,0 l-28.54-25.71l0,0l-0.55,0.2l-0.01,4.63l0,0l0,9.26l0,0l0,6.9l0,0l0,34.83h-28.51c-0.03-0.09-0.05-0.43-0.08-1l-0.03-0.79l0,0 l-0.03-0.99l0,0l-0.04-1.86l0,0l-0.04-2.27l0,0l-0.05-3.62l0,0l-0.06-5.36l0,0l-0.08-10.17l0,0l-0.06-10.09l0,0l-0.05-12.36l0,0 l-0.03-14.25l0,0l0-9.29l0,0l0.02-11.63l0,0l0.02-6.59l0,0l0.04-6.97l0,0l0.04-4.85l0,0l0.04-3.15l0,0l0.04-1.89l0,0l0.03-1.02 l0,0l0.03-0.81l0,0l0.03-0.6C361.72,201.65,361.73,201.58,361.73,201.52z M98.68,201.64h28.33c0.02,0.07,0.05,0.31,0.07,0.7 l0.03,0.7l0,0l0.03,0.92l0,0l0.03,1.13l0,0l0.04,2.06l0,0l0.06,4.33l0,0l0.05,4.19l0,0l0.05,6.01l0,0l0.06,11.04l0,0l0.03,7.55 l0,0l0.03,14.29l0,0l0.01,9.65l0,0l-0.01,10.97l0,0l-0.02,7.42l0,0l-0.03,8.21l0,0l-0.04,6.07l0,0l-0.06,6.14l0,0l-0.03,2.52l0,0 l-0.03,1.46l0,0l-0.03,1.27l0,0l-0.03,1.06l0,0l-0.03,0.85l0,0l-0.03,0.63c-0.02,0.26-0.03,0.43-0.05,0.51H98.76 c-0.09-3.98-0.09-7.95-0.08-11.92l0.02-5.95c0-0.99,0-1.98,0-2.97l-0.01-2.95l0,0l0-5.91l0,0l0.01-11.96l0,0H63.57v41.3 c-0.05,0.02-0.12,0.03-0.2,0.05l-0.28,0.04l0,0l-0.35,0.04l0,0l-0.66,0.06l0,0l-0.52,0.04l0,0l-1.22,0.07l0,0l-1.05,0.04l0,0 l-1.56,0.05l0,0l-1.27,0.03l0,0l-1.8,0.04l0,0l-2.87,0.04l0,0l-2.96,0.02l0,0l-2.46,0l0,0l-2.39-0.02l0,0l-2.68-0.04l0,0 l-1.62-0.04l0,0l-1.45-0.05l0,0l-0.96-0.04l0,0l-0.57-0.03l0,0l-0.51-0.03l0,0l-0.64-0.05c-0.06-0.01-0.12-0.01-0.18-0.02 l-0.3-0.04c-0.09-0.01-0.16-0.03-0.22-0.04V201.65h28.62v38.65c0.04,0.01,0.1,0.02,0.17,0.04l0.24,0.04l0,0l0.31,0.03l0,0 l0.58,0.05l0,0l0.72,0.05l0,0l1.15,0.06l0,0l1,0.04l0,0l1.1,0.04l0,0l2.46,0.06l0,0l3.22,0.06l0,0l1.96,0.02l0,0l3.04,0.02l0,0 l3.09,0.01l0,0l4.05-0.01l0,0l2.41-0.02l0,0l2.26-0.03l0,0l2.06-0.04l0,0l1.81-0.05l0,0l1.52-0.06l0,0l0.75-0.04l0,0l0.62-0.04 l0,0l0.33-0.03c0.05-0.01,0.1-0.01,0.14-0.02l0.23-0.03l0,0l0.02-7.06c0-0.79,0-1.58,0-2.38l0-4.93l0,0L98.68,201.64L98.68,201.64 z M160.98,311.27V201.97c0.05-0.02,0.16-0.03,0.31-0.05l0.38-0.03c0.07-0.01,0.15-0.01,0.24-0.02l0.91-0.04l0,0l1.18-0.04l0,0 l1.43-0.04l0,0l2.26-0.05l0,0l2.63-0.05l0,0l2.94-0.04l0,0l7.56-0.08l0,0l3.67-0.03l0,0l8.64-0.04l0,0l6.83-0.02l0,0l7.58,0l0,0 l6.16,0.02l0,0l4.73,0.03l0,0l3.44,0.04l0,0l2.89,0.05l0,0l0.98,0.02l0,0l1.26,0.04l0,0l1,0.04l0,0l0.51,0.03l0,0l0.38,0.03 c0.05,0.01,0.1,0.01,0.14,0.02v23.3c-0.91,0.07-1.86,0.19-2.8,0.19l-16.64,0.01l0,0l-19.72,0v18.12h34.66v24.1h-34.35 c-0.05,0.17-0.09,0.44-0.14,0.78l-0.05,0.44l0,0l-0.05,0.51l0,0l-0.06,0.87l0,0l-0.04,0.65l0,0l-0.05,1.06l0,0l-0.04,1.15l0,0 l-0.05,1.64l0,0l-0.03,1.29l0,0l-0.02,1.32l0,0l-0.01,1.78l0,0l0.01,2.18l0,0l0.01,1.26l0,0l0.01,0.81l0,0l0.02,0.78l0,0 l0.04,1.09l0,0l0.04,0.99l0,0l0.03,0.6l0,0l0.04,0.54l0,0l0.04,0.47c0.01,0.07,0.02,0.14,0.02,0.21c0.88,0.06,1.82,0.18,2.76,0.18 l16.64,0.01l0,0l19.72,0v23.2H160.98z M261.49,311.32c-0.02-0.12-0.04-0.4-0.06-0.83l-0.03-0.76l0,0l-0.03-0.97l0,0l-0.02-1.18 l0,0l-0.03-2.13l0,0l-0.03-2.53l0,0l-0.05-6.15l0,0l-0.03-6.07l0,0l-0.03-9.64l0,0l-0.02-13.73l0,0l0.01-17.61l0,0l0.04-14.01l0,0 l0.05-11.38l0,0l0.05-7.48l0,0l0.05-5.32l0,0l0.05-3.55l0,0l0.02-1.51l0,0l0.04-1.92l0,0l0.03-1.03l0,0l0.03-0.81l0,0l0.03-0.59 c0.01-0.24,0.03-0.39,0.05-0.45h28.23v80.82l0.87,0.05l0,0l0.79,0.05l0,0l0.75,0.04c0.24,0.01,0.48,0.02,0.72,0.02l16.76,0.01l0,0 l19.78,0l0,0v28.68H261.49z"></path> </g> <g id="kotlin"> <radialGradient id="SVGID_00000044173747703705646160000001600062860586618542_" cx="557.9498" cy="-1861.0433" r="540.3136" gradientTransform="matrix(1.0894 0 0 1.0894 -110.8301 2046.4634)" gradientUnits="userSpaceOnUse"> <stop offset="0" style="stop-color:#E44857"></stop> <stop offset="0.47" style="stop-color:#C711E1"></stop> <stop offset="1" style="stop-color:#7F52FF"></stop> </radialGradient> <path style="display:inline;fill:url(#SVGID_00000044173747703705646160000001600062860586618542_);" d="M512,511.86H0V0.14h512 L250.72,252.2L512,511.86z"></path> </g> <g id="solidity"> <path class="st53" d="M337.86,0l-82.31,146.3H91.03L173.28,0H337.86z"></path> <path class="st54" d="M255.55,146.3h164.56L337.87,0H173.28L255.55,146.3z"></path> <path class="st55" d="M173.28,292.54l82.27-146.24L173.28,0L91.03,146.3L173.28,292.54z"></path> <path class="st53" d="M174.08,512l82.31-146.3h164.58L338.66,512H174.08z"></path> <path class="st54" d="M256.4,365.7H91.83L174.08,512h164.58L256.4,365.7z"></path> <path class="st55" d="M338.66,219.45L256.4,365.7L338.66,512l82.31-146.3L338.66,219.45z"></path> </g> <g id="stellar"> <g id="Layer_1-2" class="st49"> <path d="M439.74,96.1l-61.65,31.41L80.39,279.14c-1.01-7.68-1.51-15.41-1.52-23.16C79,158.04,158.5,78.74,256.45,78.87 c30.19,0.04,59.88,7.79,86.24,22.51l35.29-17.98l5.26-2.69c-96.82-70.27-232.28-48.75-302.55,48.07 c-26.85,37-41.31,81.55-41.31,127.26c0,5.52,0.21,11.01,0.63,16.48c1.2,15.85-7.24,30.87-21.4,38.08L0,320.1v44.26l54.78-27.92 l0,0l17.74-9.05l17.48-8.9l0,0l313.84-159.91l35.27-17.96L512,103.46V59.23L439.74,96.1z"></path> <path d="M512,147.74L107.83,353.52l-35.27,18L0,408.5v44.21L72.07,416l61.65-31.41l298-151.85c1.01,7.73,1.51,15.51,1.52,23.31 c-0.06,97.95-79.51,177.3-177.46,177.24c-30.34-0.02-60.16-7.82-86.62-22.66l-2.17,1.15l-38.25,19.5 c96.81,70.29,232.27,48.78,302.56-48.03c26.85-36.98,41.31-81.5,41.33-127.19c0-5.57-0.22-11.13-0.63-16.64 c-1.2-15.84,7.23-30.86,21.38-38.08l18.63-9.49V147.74z"></path> </g> </g> <g id="swift"> <linearGradient id="SVGID_00000085231673442937800570000002494842782880182719_" gradientUnits="userSpaceOnUse" x1="-1723.3005" y1="-735.4658" x2="-1713.4014" y2="-679.3251" gradientTransform="matrix(-9.7656 0 0 9.7656 -16524.4883 7164.1255)"> <stop offset="0" style="stop-color:#FAAE42"></stop> <stop offset="1" style="stop-color:#EF3E31"></stop> </linearGradient> <path style="display:inline;fill:url(#SVGID_00000085231673442937800570000002494842782880182719_);" d="M113.76,0.1h283.49 c13.79,0,27.19,2.2,40.18,6.8c18.79,6.8,35.79,18.79,48.58,34.39c12.99,15.59,21.59,34.79,24.59,54.78 c1.2,7.4,1.4,14.79,1.4,22.19v276.49c0,8.8-0.4,17.79-2.2,26.39c-4,19.79-13.39,38.39-26.99,53.38 c-13.39,14.99-30.99,26.19-49.98,32.19c-11.6,3.6-23.59,5.2-35.79,5.2c-5.4,0-284.09,0-288.29-0.2c-20.39-1-40.58-7.6-57.58-18.99 c-16.59-11.2-30.19-26.79-38.98-44.78c-7.6-15.39-11.4-32.59-11.4-49.78V113.86C0.4,96.86,4,80.07,11.4,64.87 c8.6-17.99,21.99-33.79,38.58-44.98C66.97,8.3,86.97,1.5,107.36,0.5C109.36,0.1,111.56,0.1,113.76,0.1z"></path> <linearGradient id="SVGID_00000101791252962387059520000004277693889215788167_" gradientUnits="userSpaceOnUse" x1="27.6393" y1="512.2429" x2="20.3898" y2="471.1292" gradientTransform="matrix(9.7656 0 0 -9.7656 -8.7656 5010.7656)"> <stop offset="0" style="stop-color:#E39F3A"></stop> <stop offset="1" style="stop-color:#D33929"></stop> </linearGradient> <path style="display:inline;fill:url(#SVGID_00000101791252962387059520000004277693889215788167_);" d="M431.83,418.74 c-1.8-2.8-3.8-5.6-6-8.2c-5-6-10.8-11.2-17.19-15.59c-8-5.4-17.39-8.8-26.99-9.2c-6.8-0.4-13.59,0.8-19.99,3.2 c-6.4,2.2-12.6,5.4-18.59,8.6c-7,3.6-13.99,7.2-21.39,10.2c-8.8,3.6-17.99,6.4-27.39,8.4c-11.8,2.2-23.79,3-35.59,2.8 c-21.39-0.4-42.78-3.6-63.18-9.6c-17.99-5.4-35.19-12.8-51.38-22.19c-14.19-8.2-27.39-17.59-39.78-28.19 c-10.2-8.8-19.59-18.19-28.39-28.19c-6-7-11.8-14.39-17.19-21.99c-2.2-3-4.2-6.2-6-9.4L0,242.41V113.46 C0,50.88,50.58,0.1,113.16,0.1h100.96l74.77,75.97c168.73,114.76,114.16,241.31,114.16,241.31S451.02,371.35,431.83,418.74z"></path> <path class="st36" d="M289.29,76.07c168.73,114.76,114.16,241.31,114.16,241.31s47.98,54.18,28.59,101.56 c0,0-19.79-33.19-52.98-33.19c-31.99,0-50.78,33.19-115.15,33.19c-143.34,0-211.12-119.75-211.12-119.75 c129.15,84.97,217.32,24.79,217.32,24.79C211.92,290.19,88.17,128.65,88.17,128.65C195.92,220.41,242.51,244.6,242.51,244.6 c-27.79-22.99-105.76-135.35-105.76-135.35c62.38,63.18,186.33,151.34,186.33,151.34C358.26,163.04,289.29,76.07,289.29,76.07z"></path> </g> <g id="xrp"> <path class="st58" d="M437.28,44.83h73.76L357.57,196.71c-55.56,54.99-145.62,54.99-201.18,0L2.94,44.83H76.7l116.58,115.38 c35.18,34.83,92.22,34.83,127.42,0L437.28,44.83z M75.76,467.17H2l154.41-152.82c55.56-54.99,145.62-54.99,201.18,0L512,467.17 h-73.76L320.7,350.85c-35.18-34.83-92.22-34.83-127.42,0L75.76,467.17z"></path> </g> <g id="android"> <path class="st59" d="M373.82,327.28c-11.76,0-21.32-9.57-21.32-21.33s9.56-21.32,21.32-21.32c11.76,0,21.32,9.56,21.32,21.32 S385.58,327.28,373.82,327.28 M138.18,327.28c-11.76,0-21.32-9.57-21.32-21.33s9.56-21.32,21.32-21.32 c11.76,0,21.32,9.56,21.32,21.32S149.93,327.28,138.18,327.28 M381.47,198.86l42.61-73.8c2.44-4.24,0.99-9.66-3.24-12.11 c-4.24-2.44-9.66-0.99-12.11,3.24l-43.14,74.73c-32.99-15.06-70.05-23.44-109.58-23.44s-76.59,8.39-109.58,23.44l-43.14-74.73 c-2.45-4.23-7.87-5.69-12.11-3.24c-4.24,2.45-5.69,7.87-3.24,12.11l42.61,73.8C57.36,238.65,7.32,312.72,0,400.23h512 C504.67,312.72,454.63,238.65,381.47,198.86"></path> </g> <g id="eosio"> <g id="Layer_1-2_00000085217028386965881930000016535504346910081692_" class="st49"> <path d="M256,0L136.19,164.86L86.02,408.58L256,512l169.98-103.42l-51.2-244.74L256,0z M113.66,397.31l37.89-185.34l86.02,261.12 L113.66,397.31z M163.84,169.98L256,43.01l92.16,126.98L256,448.51L163.84,169.98z M273.41,473.09l86.02-261.12l37.89,185.34 L273.41,473.09z"></path> </g> </g> <g id="ethereum"> <path class="st60" d="M255.95,0l-3.43,11.67v338.55l3.43,3.43l157.15-92.89L255.95,0z"></path> <path class="st61" d="M255.95,0L98.8,260.75l157.15,92.89V189.32V0z"></path> <path class="st62" d="M255.95,383.4l-1.93,2.36v120.6l1.93,5.65L413.2,290.55L255.95,383.4z"></path> <path class="st61" d="M255.95,512V383.39L98.8,290.55L255.95,512z"></path> <path class="st63" d="M255.95,353.64l157.15-92.89l-157.15-71.43L255.95,353.64z"></path> <path class="st64" d="M98.8,260.75l157.15,92.89V189.32L98.8,260.75z"></path> </g> <g id="flutter"> <path class="st65" d="M308.56,512L170.02,374.36l76.57-77.91L462.56,512H308.56z"></path> <g class="st49"> <path class="st66" d="M168.3,374.47l137.32-137.32H460L246.37,450.77L168.3,374.47z"></path> <path class="st67" d="M49.44,254.69l77.96,77.91L460,0H304.82L49.44,254.69z"></path> </g> </g> </g> <g id="Layer_3"> <g id="protractor" class="st0"> <path class="st68" d="M512,256c0,141.38-114.62,256-256,256S0,397.38,0,256S114.62,0,256,0S512,114.62,512,256"></path> <path class="st69" d="M512,256c0-0.83-0.05-1.65-0.06-2.48c-51.16-49.32-102.89-99.27-104.34-100.98 c-36.06-42.68-89.98-69.78-150.23-69.78c-108.58,0-196.6,88.02-196.6,196.6c0,15.02,1.74,29.63,4.93,43.68 c71.26,75.07,137.53,143.34,187.13,188.88c1.06,0.01,2.1,0.08,3.17,0.08C397.38,512,512,397.39,512,256"></path> <path class="st36" d="M383.74,276.51H132.01c0-0.34-0.02-0.68-0.02-1.02c0-69.53,56.36-125.89,125.89-125.89 c69.53,0,125.89,56.36,125.89,125.89C383.77,275.83,383.75,276.17,383.74,276.51L383.74,276.51z M413.53,270.81h40.22 c-2.16-50.58-23.42-96.21-56.78-129.86l-27.77,27.77l-6.72-6.71l27.64-27.64c-34.06-31.21-79.16-50.52-128.76-51.52v35.79h-9.49 V82.9c-49.63,1.37-94.65,21.1-128.52,52.68l25.28,25.28l-6.71,6.71l-25.36-25.36c-32.65,33.52-53.44,78.63-55.58,128.59h36.82v9.5 H60.8c0.07,14.38,1.72,28.71,4.9,42.73h383.33c3.19-14.02,4.83-28.35,4.9-42.73h-40.41L413.53,270.81L413.53,270.81z"></path> </g> <g id="selenium" class="st0"> <path class="st70" d="M334.21,323.92c-19.51-0.59-36.21,13.88-38.4,33.28c-0.17,0.64,0.22,1.3,0.86,1.47 c0.11,0.03,0.23,0.04,0.34,0.04h74.54c0.67,0.01,1.21-0.53,1.21-1.2c0-0.05,0-0.11-0.01-0.16 C371.24,337.52,354.05,322.62,334.21,323.92L334.21,323.92z"></path> <path class="st70" d="M493.99,73.94L335.87,251.48c-1.81,1.95-4.86,2.07-6.81,0.27c-0.09-0.09-0.18-0.18-0.27-0.27l-80.72-83.28 c-1.41-1.76-1.41-4.26,0-6.02L274.73,128c1.55-2.16,4.56-2.66,6.72-1.11c0.43,0.31,0.8,0.68,1.11,1.11l45.18,50 c1.71,2.04,4.75,2.3,6.79,0.59c0.21-0.18,0.41-0.38,0.59-0.59L461.01,5.42c1.08-1.58,0.68-3.73-0.89-4.82 c-0.54-0.37-1.17-0.58-1.82-0.61H14.96c-2.08,0-3.76,1.69-3.76,3.76v504.47c0,2.08,1.69,3.76,3.76,3.76h481.88 c2.08,0,3.76-1.69,3.76-3.76V76.2c0.62-1.83-0.35-3.82-2.18-4.44C496.6,71.13,494.61,72.11,493.99,73.94z M147.63,455.83 c-31.63,1.59-62.64-9.21-86.44-30.12c-1.56-1.76-1.56-4.41,0-6.17l18.82-26.35c1.29-2.23,4.14-3,6.37-1.72 c0.03,0.02,0.07,0.04,0.1,0.06c17.2,15.94,39.8,24.77,63.25,24.7c24.7,0,36.74-11.44,36.74-23.49 c0-37.35-121.68-11.75-121.68-91.26c0-35.09,30.12-64.3,80.11-64.3c28.69-1.02,56.78,8.4,79.06,26.5c1.74,1.81,1.74,4.67,0,6.48 l-18.52,25.75c-1.54,2.07-4.47,2.49-6.53,0.95c-0.08-0.06-0.16-0.13-0.24-0.19c-16.43-13.06-36.84-20.07-57.83-19.88 c-19.28,0-30.12,8.58-30.12,21.23c0,33.58,121.37,11.14,121.37,90.35c0,38.25-27.56,67.46-84.63,67.46H147.63z M412.97,382.49 c0.08,2.24-1.67,4.13-3.91,4.22c-0.1,0-0.2,0-0.31,0H297.32c-0.74,0.08-1.28,0.74-1.21,1.49c0,0.01,0,0.01,0,0.02 c3.75,21.58,23.34,36.74,45.18,34.94c13.82-0.29,27.24-4.7,38.55-12.65c1.72-1.44,4.29-1.22,5.73,0.5c0.11,0.13,0.21,0.26,0.3,0.4 l13.55,19.73c1.17,1.81,0.78,4.22-0.9,5.57c-17.89,13.06-39.6,19.83-61.74,19.28c-43.84,2.45-81.37-31.11-83.82-74.96 c-0.14-2.52-0.16-5.04-0.06-7.56c-1.25-44.14,33.52-80.95,77.66-82.2c1.22-0.03,2.44-0.04,3.66-0.02 c46.83,0,78.61,35.09,78.61,86.44L412.97,382.49z"></path> </g> <g id="unity" class="st0"> <path class="st71" d="M331.92,256.02l89.6-154.72l43.3,154.72l-43.3,154.68L331.92,256.02L331.92,256.02z M288.25,281.14 l89.61,154.69L221.8,395.85L109.05,281.14H288.25z M377.85,76.15l-89.59,154.72h-179.2L221.8,116.15L377.85,76.15z M505.76,203.36 L451.09,0L247.07,54.5l-30.2,53.1l-61.28-0.44L6.24,256.03l149.34,148.83h0.01l61.26-0.45l30.25,53.1L451.09,512l54.66-203.32 l-31.04-52.66L505.76,203.36L505.76,203.36z"></path> </g> <g id="selenoid"> <g id="g4938" transform="matrix(1.6886255,0,0,1.6886255,-241.27456,-307.52376)"> <g id="g4232"> <path id="path4242" class="st72" d="M150.66,361.95l118.1,112.2l174.96-81.65l-149.99-70.13L150.66,361.95z"></path> <path id="path4234" class="st73" d="M145.25,207.82l5.4,154.13l143.08-39.58l-4.53-129.08L145.25,207.82z"></path> <path id="path4244" class="st74" d="M289.21,193.29l148.12,16.91l6.39,182.3l-149.99-70.13L289.21,193.29z"></path> <path id="path4236" class="st75" d="M145.25,207.82l115.21,29.73l176.86-27.35l-148.12-16.91L145.25,207.82z"></path> <path id="path4240" class="st76" d="M260.46,237.55l8.3,236.6l174.96-81.65l-6.39-182.3L260.46,237.55z"></path> <path id="path4238" class="st75" d="M145.25,207.82l115.21,29.73l8.3,236.6l-118.1-112.2L145.25,207.82z"></path> </g> <g id="g4349"> <path id="path4323" class="st77" d="M157.13,253.2c0,0,14.97-30.83,45.8,0.88c14.99,15.42,25.54,32.59,39.64,9.69"></path> <path id="path4345" class="st77" d="M157.13,273.53c0,0,14.97-30.83,45.8,0.88c14.99,15.42,25.54,32.59,39.64,9.69"></path> <path id="path4347" class="st77" d="M157.13,293.86c0,0,14.97-30.83,45.8,0.88c14.99,15.42,25.54,32.59,39.64,9.69"></path> </g> </g> </g> </g> </svg> 