<?xml version="1.0" encoding="utf-8"?>
<!-- Generator: Adobe Illustrator 26.2.1, SVG Export Plug-In . SVG Version: 6.00 Build 0)  -->
<svg version="1.1" id="Layer_1" xmlns="http://www.w3.org/2000/svg" xmlns:xlink="http://www.w3.org/1999/xlink" x="0px" y="0px"
	 width="915.7px" height="500px" viewBox="0 0 915.7 500" style="enable-background:new 0 0 915.7 500;" xml:space="preserve">
<style type="text/css">
	.st0{fill:url(#path297_00000065064408977055467770000000357264723630641298_);}
	.st1{fill:#0FB2EF;}
	.st2{fill:url(#path301_00000023258222914383098130000013894400583294777533_);}
	.st3{fill:url(#path305_00000078016115438001448140000009428578045350594957_);}
	.st4{fill:url(#path307_00000134942634464776957400000005099120444349190822_);}
	.st5{fill:#F59121;}
	.st6{fill-rule:evenodd;clip-rule:evenodd;fill:#0FB2EF;}
	.st7{fill-rule:evenodd;clip-rule:evenodd;fill:#F59121;}
</style>
<g id="Layer_2_00000141456446311241226370000013011306613561668006_">
</g>
<g id="Layer_1_00000062167855006303618350000001270624686649835913_">
	<g>
		<g>
			
				<linearGradient id="path297_00000002370554319228322090000002051122921467653792_" gradientUnits="userSpaceOnUse" x1="179.75" y1="164.383" x2="179.75" y2="435.083" gradientTransform="matrix(1 0 0 -1 0 501.3829)">
				<stop  offset="0" style="stop-color:#1E6494"/>
				<stop  offset="0.2553" style="stop-color:#1980B5"/>
				<stop  offset="0.5522" style="stop-color:#139BD5"/>
				<stop  offset="0.8027" style="stop-color:#10ACE8"/>
				<stop  offset="0.9749" style="stop-color:#0FB2EF"/>
			</linearGradient>
			<path id="path297" style="fill:url(#path297_00000002370554319228322090000002051122921467653792_);" d="M266,337h-85.4
				L93.5,66.3h92.2L266,337z"/>
			<path id="path299" class="st1" d="M266,337h-83.5l79.8-270.7H355L266,337z"/>
			
				<linearGradient id="path301_00000067210690491340842690000012285948275308962959_" gradientUnits="userSpaceOnUse" x1="347.3" y1="435.083" x2="347.3" y2="164.383" gradientTransform="matrix(1 0 0 -1 0 501.3829)">
				<stop  offset="2.513967e-02" style="stop-color:#0FB2EF"/>
				<stop  offset="0.1989" style="stop-color:#10ABE7"/>
				<stop  offset="0.4717" style="stop-color:#1498D0"/>
				<stop  offset="0.8073" style="stop-color:#1A79AC"/>
				<stop  offset="1" style="stop-color:#1E6494"/>
			</linearGradient>
			<path id="path301" style="fill:url(#path301_00000067210690491340842690000012285948275308962959_);" d="M392.9,337H350
				L262.4,66.3h92.7L432.2,337H392.9z"/>
			<path id="path303" class="st1" d="M432.2,337h-81.7L429,66.3h92.2L432.2,337z"/>
			
				<linearGradient id="path305_00000041995813950755608220000001799845300510409628_" gradientUnits="userSpaceOnUse" x1="544.6078" y1="430.7521" x2="593.0806" y2="164.3812" gradientTransform="matrix(1 0 0 -1 0 501.3829)">
				<stop  offset="0.1414" style="stop-color:#E87028"/>
				<stop  offset="0.3565" style="stop-color:#EC7926"/>
				<stop  offset="1" style="stop-color:#F59122"/>
			</linearGradient>
			<path id="path305" style="fill:url(#path305_00000041995813950755608220000001799845300510409628_);" d="M522.8,66.3h42.9
				L653.3,337h-92.7l-77-270.7H522.8z"/>
			
				<linearGradient id="path307_00000041987738769438057290000009487178461450890163_" gradientUnits="userSpaceOnUse" x1="735.95" y1="381.1739" x2="735.95" y2="208.6301" gradientTransform="matrix(1 0 0 -1 0 501.3829)">
				<stop  offset="0" style="stop-color:#E87028"/>
				<stop  offset="0.2505" style="stop-color:#EC7926"/>
				<stop  offset="1" style="stop-color:#F59122"/>
			</linearGradient>
			<path id="path307" style="fill:url(#path307_00000041987738769438057290000009487178461450890163_);" d="M649.7,66.3H735
				L822.2,337H730L649.7,66.3z"/>
			<path id="path309" class="st5" d="M649.7,66.3h83.5L653.3,337h-92.7L649.7,66.3z"/>
			<path id="path311" class="st5" d="M483.6,66.3h81.7L486.8,337h-92.2L483.6,66.3z"/>
		</g>
		<g>
			<path class="st1" d="M121.3,431.9l-27.4-83.4h28.3l12.8,39.9l12.8-39.9h23.7l13.7,39.9l11.9-39.9h27.4L198,431.9h-23.7
				l-14.6-40.8L145,431.9H121.3z"/>
			<path class="st5" d="M458.2,348.4l-27.4,83.4h28.3l12.8-39.9l12.8,39.9h23.7l13.7-39.9l11.9,39.9h27.4l-26.5-83.4h-23.7
				l-14.6,40.8L482,348.4H458.2z"/>
			<path class="st1" d="M231,348.4h27.4v83.4H231V348.4z"/>
			<path class="st6" d="M424.8,371.6v-23.2h-71.2l0,0v23.2v7.4v20.4v9.3v23.2H381h43.8v-23.2H381v-9.3h40.2V379H381v-7.4H424.8z"/>
			<path class="st6" d="M287.2,348.4h30.6c16.4,0,29.7,13.3,29.7,29.7c0,11.4-6.5,21.4-15.9,26.3l17.8,27.5h-31.1l-15.5-24.1l0,0
				h-6.4v24.1H269v-83.4L287.2,348.4L287.2,348.4z M296.3,371.6v16.7h15.4c4.6,0,8.3-3.7,8.3-8.3c0-4.6-3.7-8.3-8.3-8.3h-15.4V371.6
				z"/>
			<path class="st7" d="M597.5,433.7c25.2,0,45.7-19.5,45.7-43.6s-20.4-43.6-45.7-43.6c-25.2,0-45.7,19.5-45.7,43.6
				S572.3,433.7,597.5,433.7z M613.9,390.1c0-10.2-7.4-18.5-16.4-18.5s-16.4,8.3-16.4,18.5s7.4,18.5,16.4,18.5
				S613.9,400.4,613.9,390.1z"/>
			<path class="st7" d="M729.5,412c-7.6,13-21.7,21.7-37.9,21.7c-24.2,0-43.8-19.5-43.8-43.6s19.6-43.6,43.8-43.6
				c16.1,0,30.2,8.6,37.8,21.4l-23.5,14.2c-2.5-6.3-8-10.6-14.3-10.6c-8.7,0-15.8,8.3-15.8,18.5s7.1,18.5,15.8,18.5
				c6.7,0,12.4-4.9,14.7-11.7L729.5,412z"/>
			<path class="st7" d="M763.3,379.5v-31.1h-27.4v83.4h27.4v-17.4l7.4-8.6l17.3,26h31.1L789.5,384l30.5-35.6h-32.9L763.3,379.5z"/>
		</g>
	</g>
</g>
</svg>
